<svg width="140" height="140" viewBox="0 0 140 140" fill="none" xmlns="http://www.w3.org/2000/svg">
<rect x="70" y="0.430054" width="98.6492" height="98.6492" rx="6" transform="rotate(45 70 0.430054)" fill="white"/>
<path d="M98.7983 52.8447C102.824 52.3802 108.398 54.0833 112.423 58.1089L124.5 70.1856L116.913 77.7722L104.837 65.6955C103.134 63.9924 101.276 63.5279 99.5725 63.6827C97.7145 63.8376 95.7017 64.9214 93.9986 66.6245C92.2955 68.3276 91.3665 70.3404 91.0569 72.1984C90.902 73.9015 91.3665 75.6046 93.0696 77.3077L105.301 89.5393L97.7145 97.1259L85.483 84.8944C81.4574 80.8688 80.064 75.7594 80.5284 71.1146C80.8381 67.8631 82.0767 64.7665 83.9347 62.1344C85.1733 60.5861 91.0569 53.6188 98.7983 52.8447Z" fill="#0897FF"/>
<path d="M52.6591 41.3873C52.1946 37.3617 53.8977 31.7878 57.9232 27.7623L70 15.6855L77.5866 23.2722L65.5099 35.3489C63.8068 37.052 63.3423 38.91 63.4971 40.6131C63.652 42.4711 64.7357 44.4839 66.4389 46.187C68.142 47.8901 70.1548 48.8191 72.0127 49.1287C73.7159 49.2836 75.419 48.8191 77.1221 47.116L89.3536 34.8844L96.9403 42.4711L84.7088 54.7026C80.6832 58.7282 75.5738 60.1216 70.9289 59.6572C67.6775 59.3475 64.5809 58.1089 61.9488 56.2509C60.4005 55.0123 53.4332 49.1287 52.6591 41.3873Z" fill="#FF0808"/>
<path d="M41.2017 87.5264C37.1761 87.9909 31.6023 86.2878 27.5767 82.2622L15.5 70.1855L23.0866 62.5989L35.1633 74.6756C36.8665 76.3787 38.7244 76.8432 40.4276 76.6884C42.2855 76.5335 44.2983 75.4497 46.0014 73.7466C47.7045 72.0435 48.6335 70.0307 48.9432 68.1727C49.098 66.4696 48.6335 64.7665 46.9304 63.0634L34.6989 50.8318L42.2855 43.2452L54.517 55.4767C58.5426 59.5023 59.9361 64.6117 59.4716 69.2566C59.1619 72.508 57.9233 75.6046 56.0653 78.2367C54.8267 79.785 49.098 86.7523 41.2017 87.5264Z" fill="#FFCC00"/>
<path d="M87.4958 98.9838C87.9603 103.009 86.2572 108.583 82.2316 112.609L70.1549 124.686L62.5682 117.099L74.6449 105.022C76.3481 103.319 76.8126 101.461 76.6577 99.758C76.5029 97.9 75.4191 95.8872 73.716 94.1841C72.0129 92.481 70.0001 91.552 68.1421 91.2424C66.439 91.0875 64.7359 91.552 63.0327 93.2551L50.8012 105.487L43.2145 97.9L55.4461 85.6685C59.4717 81.6429 64.581 80.2494 69.2259 80.7139C72.4773 81.0236 75.5739 82.2622 78.206 84.1202C79.7543 85.3588 86.5668 91.0875 87.4958 98.9838Z" fill="#B008FF"/>
</svg>
