<svg width="704" height="704" viewBox="0 0 704 704" fill="none" xmlns="http://www.w3.org/2000/svg">
<circle cx="352" cy="352" r="352" fill="#E3EDFA"/>
<mask id="path-2-outside-1_1255_302" maskUnits="userSpaceOnUse" x="146" y="100" width="452" height="452" fill="black">
<rect fill="white" x="146" y="100" width="452" height="452"/>
<path d="M595.256 397.77C593.285 387.117 586.196 378.121 576.298 373.711C564.804 368.586 551.182 370.54 541.552 378.726L471.022 439.387C468.11 422.581 453.423 409.759 435.797 409.759H369.225L357.141 402.365C337.506 390.353 314.96 384.001 291.939 384.001H288.314C266.418 384.001 245.471 391.237 228.467 404.309V402.874C228.467 393.229 220.619 385.382 210.974 385.382H165.493C155.848 385.382 148 393.229 148 402.874V532.322C148 541.967 155.848 549.814 165.493 549.814H210.974C217.431 549.814 223.069 546.288 226.099 541.068H293.19C298.021 541.068 301.936 537.152 301.936 532.322C301.936 527.488 298.021 523.576 293.19 523.576H228.467V428.017C243.773 411.122 265.41 401.494 288.314 401.494H291.939C311.735 401.494 331.127 406.957 348.012 417.289L362.197 425.967C363.571 426.807 365.153 427.251 366.762 427.251H435.797C445.866 427.251 454.055 435.441 454.055 445.509C454.055 455.278 446.344 463.279 436.692 463.747C436.631 463.747 436.569 463.747 436.507 463.747H345.959C341.131 463.747 337.212 467.666 337.212 472.494C337.212 477.325 341.128 481.24 345.959 481.24L435.797 481.26C436.275 481.26 436.75 481.25 437.222 481.233C445.141 481.069 452.781 478.148 458.797 472.975L552.92 392.02C557.413 388.2 563.794 387.285 569.179 389.687C573.883 391.784 577.117 395.891 578.059 400.958C578.997 406.021 577.447 411.016 573.807 414.658L491.644 496.864C474.428 514.088 451.533 523.576 427.18 523.576H371.907C367.076 523.576 363.161 527.488 363.161 532.322C363.161 537.152 367.076 541.068 371.907 541.068H427.18C456.207 541.068 483.495 529.761 504.015 509.227L586.177 427.026C593.836 419.363 597.231 408.426 595.256 397.77ZM165.493 532.322L165.482 402.874H210.974V532.322H165.493Z"/>
<path d="M203.106 206.276L268.7 243.738V303.336C268.7 303.336 271.242 313.108 275.502 315.882L341.814 359.064C347.766 362.938 354.589 364.879 361.411 364.876C368.234 364.876 375.057 362.938 381.009 359.064L447.324 315.882C451.581 313.108 454.123 308.421 454.123 303.336V243.738L506.635 213.748V241.757C494.493 245.501 485.644 256.824 485.644 270.179V342.743C485.644 347.571 489.56 351.49 494.391 351.49H536.374C541.204 351.49 545.12 347.571 545.12 342.743V270.179C545.12 256.824 536.27 245.498 524.129 241.757V198.681C524.129 195.541 522.444 192.644 519.718 191.086L365.751 103.151C363.062 101.616 359.761 101.616 357.073 103.151L203.106 191.086C200.379 192.64 198.695 195.541 198.695 198.681C198.695 201.821 200.379 204.718 203.106 206.276ZM436.631 301.97L371.463 344.404C365.358 348.381 357.465 348.381 351.36 344.404L286.193 301.97V253.728L357.076 294.208C358.419 294.977 359.915 295.359 361.411 295.359C362.908 295.359 364.408 294.977 365.751 294.208L436.631 253.728V301.97ZM527.627 333.993H503.137V270.179C503.137 263.424 508.628 257.934 515.382 257.934C522.133 257.934 527.627 263.424 527.627 270.179V333.993ZM361.411 120.818L482.429 189.935H385.843C382.017 180.173 372.508 173.238 361.408 173.238C346.939 173.238 335.169 185.011 335.169 199.477C335.169 213.946 346.939 225.716 361.408 225.716C373.106 225.716 383.038 218.019 386.414 207.427H482.429L361.411 276.541L225.078 198.681L361.411 120.818ZM370.155 199.477C370.155 204.301 366.232 208.223 361.408 208.223C356.584 208.223 352.662 204.301 352.662 199.477C352.662 194.656 356.584 190.731 361.408 190.731C366.232 190.731 370.155 194.656 370.155 199.477Z"/>
<path d="M332.548 523.576C330.249 523.576 327.991 524.51 326.364 526.137C324.738 527.763 323.802 530.022 323.802 532.322C323.802 534.618 324.738 536.877 326.364 538.503C327.991 540.13 330.249 541.068 332.548 541.068C334.847 541.068 337.106 540.13 338.732 538.503C340.359 536.877 341.295 534.618 341.295 532.322C341.295 530.022 340.359 527.763 338.732 526.137C337.106 524.51 334.847 523.576 332.548 523.576Z"/>
</mask>
<path d="M595.256 397.77C593.285 387.117 586.196 378.121 576.298 373.711C564.804 368.586 551.182 370.54 541.552 378.726L471.022 439.387C468.11 422.581 453.423 409.759 435.797 409.759H369.225L357.141 402.365C337.506 390.353 314.96 384.001 291.939 384.001H288.314C266.418 384.001 245.471 391.237 228.467 404.309V402.874C228.467 393.229 220.619 385.382 210.974 385.382H165.493C155.848 385.382 148 393.229 148 402.874V532.322C148 541.967 155.848 549.814 165.493 549.814H210.974C217.431 549.814 223.069 546.288 226.099 541.068H293.19C298.021 541.068 301.936 537.152 301.936 532.322C301.936 527.488 298.021 523.576 293.19 523.576H228.467V428.017C243.773 411.122 265.41 401.494 288.314 401.494H291.939C311.735 401.494 331.127 406.957 348.012 417.289L362.197 425.967C363.571 426.807 365.153 427.251 366.762 427.251H435.797C445.866 427.251 454.055 435.441 454.055 445.509C454.055 455.278 446.344 463.279 436.692 463.747C436.631 463.747 436.569 463.747 436.507 463.747H345.959C341.131 463.747 337.212 467.666 337.212 472.494C337.212 477.325 341.128 481.24 345.959 481.24L435.797 481.26C436.275 481.26 436.75 481.25 437.222 481.233C445.141 481.069 452.781 478.148 458.797 472.975L552.92 392.02C557.413 388.2 563.794 387.285 569.179 389.687C573.883 391.784 577.117 395.891 578.059 400.958C578.997 406.021 577.447 411.016 573.807 414.658L491.644 496.864C474.428 514.088 451.533 523.576 427.18 523.576H371.907C367.076 523.576 363.161 527.488 363.161 532.322C363.161 537.152 367.076 541.068 371.907 541.068H427.18C456.207 541.068 483.495 529.761 504.015 509.227L586.177 427.026C593.836 419.363 597.231 408.426 595.256 397.77ZM165.493 532.322L165.482 402.874H210.974V532.322H165.493Z" fill="#263C5D"/>
<path d="M203.106 206.276L268.7 243.738V303.336C268.7 303.336 271.242 313.108 275.502 315.882L341.814 359.064C347.766 362.938 354.589 364.879 361.411 364.876C368.234 364.876 375.057 362.938 381.009 359.064L447.324 315.882C451.581 313.108 454.123 308.421 454.123 303.336V243.738L506.635 213.748V241.757C494.493 245.501 485.644 256.824 485.644 270.179V342.743C485.644 347.571 489.56 351.49 494.391 351.49H536.374C541.204 351.49 545.12 347.571 545.12 342.743V270.179C545.12 256.824 536.27 245.498 524.129 241.757V198.681C524.129 195.541 522.444 192.644 519.718 191.086L365.751 103.151C363.062 101.616 359.761 101.616 357.073 103.151L203.106 191.086C200.379 192.64 198.695 195.541 198.695 198.681C198.695 201.821 200.379 204.718 203.106 206.276ZM436.631 301.97L371.463 344.404C365.358 348.381 357.465 348.381 351.36 344.404L286.193 301.97V253.728L357.076 294.208C358.419 294.977 359.915 295.359 361.411 295.359C362.908 295.359 364.408 294.977 365.751 294.208L436.631 253.728V301.97ZM527.627 333.993H503.137V270.179C503.137 263.424 508.628 257.934 515.382 257.934C522.133 257.934 527.627 263.424 527.627 270.179V333.993ZM361.411 120.818L482.429 189.935H385.843C382.017 180.173 372.508 173.238 361.408 173.238C346.939 173.238 335.169 185.011 335.169 199.477C335.169 213.946 346.939 225.716 361.408 225.716C373.106 225.716 383.038 218.019 386.414 207.427H482.429L361.411 276.541L225.078 198.681L361.411 120.818ZM370.155 199.477C370.155 204.301 366.232 208.223 361.408 208.223C356.584 208.223 352.662 204.301 352.662 199.477C352.662 194.656 356.584 190.731 361.408 190.731C366.232 190.731 370.155 194.656 370.155 199.477Z" fill="#263C5D"/>
<path d="M332.548 523.576C330.249 523.576 327.991 524.51 326.364 526.137C324.738 527.763 323.802 530.022 323.802 532.322C323.802 534.618 324.738 536.877 326.364 538.503C327.991 540.13 330.249 541.068 332.548 541.068C334.847 541.068 337.106 540.13 338.732 538.503C340.359 536.877 341.295 534.618 341.295 532.322C341.295 530.022 340.359 527.763 338.732 526.137C337.106 524.51 334.847 523.576 332.548 523.576Z" fill="#263C5D"/>
<path d="M595.256 397.77C593.285 387.117 586.196 378.121 576.298 373.711C564.804 368.586 551.182 370.54 541.552 378.726L471.022 439.387C468.11 422.581 453.423 409.759 435.797 409.759H369.225L357.141 402.365C337.506 390.353 314.96 384.001 291.939 384.001H288.314C266.418 384.001 245.471 391.237 228.467 404.309V402.874C228.467 393.229 220.619 385.382 210.974 385.382H165.493C155.848 385.382 148 393.229 148 402.874V532.322C148 541.967 155.848 549.814 165.493 549.814H210.974C217.431 549.814 223.069 546.288 226.099 541.068H293.19C298.021 541.068 301.936 537.152 301.936 532.322C301.936 527.488 298.021 523.576 293.19 523.576H228.467V428.017C243.773 411.122 265.41 401.494 288.314 401.494H291.939C311.735 401.494 331.127 406.957 348.012 417.289L362.197 425.967C363.571 426.807 365.153 427.251 366.762 427.251H435.797C445.866 427.251 454.055 435.441 454.055 445.509C454.055 455.278 446.344 463.279 436.692 463.747C436.631 463.747 436.569 463.747 436.507 463.747H345.959C341.131 463.747 337.212 467.666 337.212 472.494C337.212 477.325 341.128 481.24 345.959 481.24L435.797 481.26C436.275 481.26 436.75 481.25 437.222 481.233C445.141 481.069 452.781 478.148 458.797 472.975L552.92 392.02C557.413 388.2 563.794 387.285 569.179 389.687C573.883 391.784 577.117 395.891 578.059 400.958C578.997 406.021 577.447 411.016 573.807 414.658L491.644 496.864C474.428 514.088 451.533 523.576 427.18 523.576H371.907C367.076 523.576 363.161 527.488 363.161 532.322C363.161 537.152 367.076 541.068 371.907 541.068H427.18C456.207 541.068 483.495 529.761 504.015 509.227L586.177 427.026C593.836 419.363 597.231 408.426 595.256 397.77ZM165.493 532.322L165.482 402.874H210.974V532.322H165.493Z" stroke="#263C5D" stroke-width="4" mask="url(#path-2-outside-1_1255_302)"/>
<path d="M203.106 206.276L268.7 243.738V303.336C268.7 303.336 271.242 313.108 275.502 315.882L341.814 359.064C347.766 362.938 354.589 364.879 361.411 364.876C368.234 364.876 375.057 362.938 381.009 359.064L447.324 315.882C451.581 313.108 454.123 308.421 454.123 303.336V243.738L506.635 213.748V241.757C494.493 245.501 485.644 256.824 485.644 270.179V342.743C485.644 347.571 489.56 351.49 494.391 351.49H536.374C541.204 351.49 545.12 347.571 545.12 342.743V270.179C545.12 256.824 536.27 245.498 524.129 241.757V198.681C524.129 195.541 522.444 192.644 519.718 191.086L365.751 103.151C363.062 101.616 359.761 101.616 357.073 103.151L203.106 191.086C200.379 192.64 198.695 195.541 198.695 198.681C198.695 201.821 200.379 204.718 203.106 206.276ZM436.631 301.97L371.463 344.404C365.358 348.381 357.465 348.381 351.36 344.404L286.193 301.97V253.728L357.076 294.208C358.419 294.977 359.915 295.359 361.411 295.359C362.908 295.359 364.408 294.977 365.751 294.208L436.631 253.728V301.97ZM527.627 333.993H503.137V270.179C503.137 263.424 508.628 257.934 515.382 257.934C522.133 257.934 527.627 263.424 527.627 270.179V333.993ZM361.411 120.818L482.429 189.935H385.843C382.017 180.173 372.508 173.238 361.408 173.238C346.939 173.238 335.169 185.011 335.169 199.477C335.169 213.946 346.939 225.716 361.408 225.716C373.106 225.716 383.038 218.019 386.414 207.427H482.429L361.411 276.541L225.078 198.681L361.411 120.818ZM370.155 199.477C370.155 204.301 366.232 208.223 361.408 208.223C356.584 208.223 352.662 204.301 352.662 199.477C352.662 194.656 356.584 190.731 361.408 190.731C366.232 190.731 370.155 194.656 370.155 199.477Z" stroke="#263C5D" stroke-width="4" mask="url(#path-2-outside-1_1255_302)"/>
<path d="M332.548 523.576C330.249 523.576 327.991 524.51 326.364 526.137C324.738 527.763 323.802 530.022 323.802 532.322C323.802 534.618 324.738 536.877 326.364 538.503C327.991 540.13 330.249 541.068 332.548 541.068C334.847 541.068 337.106 540.13 338.732 538.503C340.359 536.877 341.295 534.618 341.295 532.322C341.295 530.022 340.359 527.763 338.732 526.137C337.106 524.51 334.847 523.576 332.548 523.576Z" stroke="#263C5D" stroke-width="4" mask="url(#path-2-outside-1_1255_302)"/>
</svg>
