<svg width="704" height="704" viewBox="0 0 704 704" fill="none" xmlns="http://www.w3.org/2000/svg">
<circle cx="352" cy="352" r="352" fill="#E3EDFA"/>
<mask id="path-2-outside-1_1254_322" maskUnits="userSpaceOnUse" x="157" y="85" width="334" height="534" fill="black">
<rect fill="white" x="157" y="85" width="334" height="534"/>
<path d="M477.411 321.581C480.674 318.174 482.691 313.605 482.691 308.573V197.082C482.691 179.05 467.722 164.38 449.324 164.38C442.873 164.38 436.846 166.19 431.736 169.31V144.651C431.736 126.62 416.768 111.949 398.37 111.949C391.865 111.949 385.793 113.79 380.656 116.958C379.227 100.207 364.87 87 347.414 87C329.016 87 314.049 101.67 314.049 119.702V135.291C308.938 132.171 302.913 130.362 296.46 130.362C278.063 130.362 263.094 145.032 263.094 163.063V308.573C263.094 313.451 264.991 317.891 268.08 321.263C260.754 327.742 256.139 337.114 256.139 347.524V357.07L230.656 333.951C228.739 332.212 226.61 330.826 224.359 329.756L224.523 298.155C224.613 280.893 212.728 265.971 195.619 261.867C190.691 260.687 185.589 261.455 181.251 264.034C176.913 266.613 173.861 270.694 172.654 275.523L160.741 323.226C157.454 336.386 165.412 349.705 178.57 353.437C177.396 358.843 177.991 364.635 180.658 369.891L207.007 421.828C216.553 440.642 233.844 454.762 254.446 460.569L258.047 461.584C262.974 478.821 277.035 492.354 294.778 496.807V599.753C294.778 609.262 302.671 617 312.374 617H432.763C442.465 617 450.359 609.262 450.359 599.753V569.991C450.359 565.723 446.827 562.261 442.471 562.261C438.114 562.261 434.582 565.723 434.582 569.991V599.753C434.582 600.738 433.766 601.537 432.763 601.537H312.376C311.374 601.537 310.557 600.738 310.557 599.753V542.261H442.473C446.83 542.261 450.361 538.799 450.361 534.531V496.807C472.549 491.239 489 471.479 489 448.022V347.524C489 337.282 484.531 328.047 477.411 321.581ZM278.872 246.515C283.58 250.949 289.853 253.449 296.46 253.449C303.068 253.449 309.341 250.948 314.048 246.515V308.557V308.573C314.048 310.545 312.411 312.149 310.4 312.149H304.348V286.538C304.348 282.268 300.816 278.806 296.459 278.806C292.103 278.806 288.57 282.268 288.57 286.538V312.149H282.519C280.507 312.149 278.87 310.544 278.87 308.573V246.515H278.872ZM449.324 278.808C444.967 278.808 441.436 282.269 441.436 286.539V312.15H435.385C433.373 312.15 431.736 310.545 431.736 308.575V308.573V261.979C436.444 266.414 442.718 268.913 449.325 268.913C455.934 268.913 462.207 266.412 466.913 261.978V308.575C466.913 310.546 465.277 312.15 463.265 312.15H457.213V286.539C457.213 282.269 453.681 278.808 449.324 278.808ZM415.958 308.572C415.958 310.544 414.322 312.148 412.31 312.148H406.258V287.713C406.258 283.443 402.726 279.981 398.369 279.981C394.012 279.981 390.481 283.443 390.481 287.713V312.148H384.429C382.417 312.148 380.782 310.543 380.782 308.572V308.557V243.565C385.489 248 391.763 250.5 398.37 250.5C404.979 250.5 411.252 247.999 415.958 243.564V308.572ZM365.004 308.557C365.004 310.529 363.368 312.132 361.356 312.132H355.304V287.504C355.304 283.234 351.772 279.772 347.415 279.772C343.058 279.772 339.527 283.234 339.527 287.504V312.132H333.476C331.464 312.132 329.827 310.528 329.827 308.557V225.832C334.535 230.267 340.808 232.767 347.416 232.767C354.025 232.767 360.299 230.266 365.005 225.831V308.557H365.004ZM449.324 179.843C459.022 179.843 466.913 187.576 466.913 197.082V238.17L456.69 250.086C453.781 253.323 447.144 255.314 441.956 250.086L431.734 238.17V197.082C431.736 187.576 439.625 179.843 449.324 179.843ZM329.827 119.702C329.827 110.196 337.717 102.463 347.415 102.463C357.113 102.463 365.004 110.196 365.004 119.702V144.651V157.967C365.004 162.237 368.536 165.699 372.893 165.699C377.25 165.699 380.782 162.237 380.782 157.967V144.651C380.782 135.145 388.671 127.413 398.369 127.413C408.067 127.413 415.958 135.145 415.958 144.651V219.759L405.735 231.674C402.826 234.912 396.188 236.902 391.001 231.674L380.78 219.759V195.207C380.78 190.937 377.247 187.476 372.891 187.476C368.534 187.476 365.002 190.937 365.002 195.207V202.026L354.78 213.941C351.87 217.177 345.233 219.17 340.045 213.941L329.825 202.026V119.702H329.827ZM278.872 163.063C278.872 153.557 286.761 145.825 296.46 145.825C306.159 145.825 314.049 153.557 314.049 163.063V222.708L303.827 234.624C300.917 237.86 294.28 239.853 289.093 234.624L278.872 222.708V163.063ZM177.226 334.282C175.846 332.055 175.435 329.435 176.067 326.904L187.981 279.2C188.257 278.096 189.011 277.507 189.436 277.255C189.862 277.002 190.745 276.617 191.869 276.888C201.858 279.284 208.798 287.998 208.746 298.078L208.593 327.638C205.207 328.243 201.902 329.515 198.885 331.489L189.405 337.698C186.286 340.044 180.428 339.166 177.226 334.282ZM221.137 414.944L194.788 363.007C192.565 358.627 194.02 353.274 198.17 350.555L207.65 344.346C211.493 341.83 216.547 342.221 219.939 345.299L256.139 378.141V444.881C240.96 439.847 228.3 429.063 221.137 414.944ZM473.223 448.022C473.223 467.26 457.253 482.911 437.625 482.911H366.935C362.578 482.911 359.046 486.373 359.046 490.643C359.046 494.914 362.578 498.375 366.935 498.375H434.583V526.801H310.557V498.375H329.465C333.822 498.375 337.354 494.914 337.354 490.643C337.354 486.373 333.822 482.911 329.465 482.911H307.516C287.887 482.911 271.918 467.261 271.918 448.022V347.524C271.918 337.772 279.114 329.65 288.572 327.954V338.469C288.572 342.739 292.103 346.2 296.46 346.2C300.817 346.2 304.349 342.739 304.349 338.469V327.612H339.525V339.435C339.525 343.705 343.058 347.166 347.414 347.166C351.771 347.166 355.303 343.705 355.303 339.435V327.612H390.481V339.643C390.481 343.912 394.012 347.374 398.369 347.374C402.726 347.374 406.258 343.912 406.258 339.643V327.612H441.436V338.469C441.436 342.739 444.967 346.2 449.324 346.2C453.681 346.2 457.213 342.739 457.213 338.469V328.073C466.352 330.014 473.224 337.993 473.224 347.525V448.022H473.223Z"/>
</mask>
<path d="M477.411 321.581C480.674 318.174 482.691 313.605 482.691 308.573V197.082C482.691 179.05 467.722 164.38 449.324 164.38C442.873 164.38 436.846 166.19 431.736 169.31V144.651C431.736 126.62 416.768 111.949 398.37 111.949C391.865 111.949 385.793 113.79 380.656 116.958C379.227 100.207 364.87 87 347.414 87C329.016 87 314.049 101.67 314.049 119.702V135.291C308.938 132.171 302.913 130.362 296.46 130.362C278.063 130.362 263.094 145.032 263.094 163.063V308.573C263.094 313.451 264.991 317.891 268.08 321.263C260.754 327.742 256.139 337.114 256.139 347.524V357.07L230.656 333.951C228.739 332.212 226.61 330.826 224.359 329.756L224.523 298.155C224.613 280.893 212.728 265.971 195.619 261.867C190.691 260.687 185.589 261.455 181.251 264.034C176.913 266.613 173.861 270.694 172.654 275.523L160.741 323.226C157.454 336.386 165.412 349.705 178.57 353.437C177.396 358.843 177.991 364.635 180.658 369.891L207.007 421.828C216.553 440.642 233.844 454.762 254.446 460.569L258.047 461.584C262.974 478.821 277.035 492.354 294.778 496.807V599.753C294.778 609.262 302.671 617 312.374 617H432.763C442.465 617 450.359 609.262 450.359 599.753V569.991C450.359 565.723 446.827 562.261 442.471 562.261C438.114 562.261 434.582 565.723 434.582 569.991V599.753C434.582 600.738 433.766 601.537 432.763 601.537H312.376C311.374 601.537 310.557 600.738 310.557 599.753V542.261H442.473C446.83 542.261 450.361 538.799 450.361 534.531V496.807C472.549 491.239 489 471.479 489 448.022V347.524C489 337.282 484.531 328.047 477.411 321.581ZM278.872 246.515C283.58 250.949 289.853 253.449 296.46 253.449C303.068 253.449 309.341 250.948 314.048 246.515V308.557V308.573C314.048 310.545 312.411 312.149 310.4 312.149H304.348V286.538C304.348 282.268 300.816 278.806 296.459 278.806C292.103 278.806 288.57 282.268 288.57 286.538V312.149H282.519C280.507 312.149 278.87 310.544 278.87 308.573V246.515H278.872ZM449.324 278.808C444.967 278.808 441.436 282.269 441.436 286.539V312.15H435.385C433.373 312.15 431.736 310.545 431.736 308.575V308.573V261.979C436.444 266.414 442.718 268.913 449.325 268.913C455.934 268.913 462.207 266.412 466.913 261.978V308.575C466.913 310.546 465.277 312.15 463.265 312.15H457.213V286.539C457.213 282.269 453.681 278.808 449.324 278.808ZM415.958 308.572C415.958 310.544 414.322 312.148 412.31 312.148H406.258V287.713C406.258 283.443 402.726 279.981 398.369 279.981C394.012 279.981 390.481 283.443 390.481 287.713V312.148H384.429C382.417 312.148 380.782 310.543 380.782 308.572V308.557V243.565C385.489 248 391.763 250.5 398.37 250.5C404.979 250.5 411.252 247.999 415.958 243.564V308.572ZM365.004 308.557C365.004 310.529 363.368 312.132 361.356 312.132H355.304V287.504C355.304 283.234 351.772 279.772 347.415 279.772C343.058 279.772 339.527 283.234 339.527 287.504V312.132H333.476C331.464 312.132 329.827 310.528 329.827 308.557V225.832C334.535 230.267 340.808 232.767 347.416 232.767C354.025 232.767 360.299 230.266 365.005 225.831V308.557H365.004ZM449.324 179.843C459.022 179.843 466.913 187.576 466.913 197.082V238.17L456.69 250.086C453.781 253.323 447.144 255.314 441.956 250.086L431.734 238.17V197.082C431.736 187.576 439.625 179.843 449.324 179.843ZM329.827 119.702C329.827 110.196 337.717 102.463 347.415 102.463C357.113 102.463 365.004 110.196 365.004 119.702V144.651V157.967C365.004 162.237 368.536 165.699 372.893 165.699C377.25 165.699 380.782 162.237 380.782 157.967V144.651C380.782 135.145 388.671 127.413 398.369 127.413C408.067 127.413 415.958 135.145 415.958 144.651V219.759L405.735 231.674C402.826 234.912 396.188 236.902 391.001 231.674L380.78 219.759V195.207C380.78 190.937 377.247 187.476 372.891 187.476C368.534 187.476 365.002 190.937 365.002 195.207V202.026L354.78 213.941C351.87 217.177 345.233 219.17 340.045 213.941L329.825 202.026V119.702H329.827ZM278.872 163.063C278.872 153.557 286.761 145.825 296.46 145.825C306.159 145.825 314.049 153.557 314.049 163.063V222.708L303.827 234.624C300.917 237.86 294.28 239.853 289.093 234.624L278.872 222.708V163.063ZM177.226 334.282C175.846 332.055 175.435 329.435 176.067 326.904L187.981 279.2C188.257 278.096 189.011 277.507 189.436 277.255C189.862 277.002 190.745 276.617 191.869 276.888C201.858 279.284 208.798 287.998 208.746 298.078L208.593 327.638C205.207 328.243 201.902 329.515 198.885 331.489L189.405 337.698C186.286 340.044 180.428 339.166 177.226 334.282ZM221.137 414.944L194.788 363.007C192.565 358.627 194.02 353.274 198.17 350.555L207.65 344.346C211.493 341.83 216.547 342.221 219.939 345.299L256.139 378.141V444.881C240.96 439.847 228.3 429.063 221.137 414.944ZM473.223 448.022C473.223 467.26 457.253 482.911 437.625 482.911H366.935C362.578 482.911 359.046 486.373 359.046 490.643C359.046 494.914 362.578 498.375 366.935 498.375H434.583V526.801H310.557V498.375H329.465C333.822 498.375 337.354 494.914 337.354 490.643C337.354 486.373 333.822 482.911 329.465 482.911H307.516C287.887 482.911 271.918 467.261 271.918 448.022V347.524C271.918 337.772 279.114 329.65 288.572 327.954V338.469C288.572 342.739 292.103 346.2 296.46 346.2C300.817 346.2 304.349 342.739 304.349 338.469V327.612H339.525V339.435C339.525 343.705 343.058 347.166 347.414 347.166C351.771 347.166 355.303 343.705 355.303 339.435V327.612H390.481V339.643C390.481 343.912 394.012 347.374 398.369 347.374C402.726 347.374 406.258 343.912 406.258 339.643V327.612H441.436V338.469C441.436 342.739 444.967 346.2 449.324 346.2C453.681 346.2 457.213 342.739 457.213 338.469V328.073C466.352 330.014 473.224 337.993 473.224 347.525V448.022H473.223Z" fill="#263C5D"/>
<path d="M477.411 321.581C480.674 318.174 482.691 313.605 482.691 308.573V197.082C482.691 179.05 467.722 164.38 449.324 164.38C442.873 164.38 436.846 166.19 431.736 169.31V144.651C431.736 126.62 416.768 111.949 398.37 111.949C391.865 111.949 385.793 113.79 380.656 116.958C379.227 100.207 364.87 87 347.414 87C329.016 87 314.049 101.67 314.049 119.702V135.291C308.938 132.171 302.913 130.362 296.46 130.362C278.063 130.362 263.094 145.032 263.094 163.063V308.573C263.094 313.451 264.991 317.891 268.08 321.263C260.754 327.742 256.139 337.114 256.139 347.524V357.07L230.656 333.951C228.739 332.212 226.61 330.826 224.359 329.756L224.523 298.155C224.613 280.893 212.728 265.971 195.619 261.867C190.691 260.687 185.589 261.455 181.251 264.034C176.913 266.613 173.861 270.694 172.654 275.523L160.741 323.226C157.454 336.386 165.412 349.705 178.57 353.437C177.396 358.843 177.991 364.635 180.658 369.891L207.007 421.828C216.553 440.642 233.844 454.762 254.446 460.569L258.047 461.584C262.974 478.821 277.035 492.354 294.778 496.807V599.753C294.778 609.262 302.671 617 312.374 617H432.763C442.465 617 450.359 609.262 450.359 599.753V569.991C450.359 565.723 446.827 562.261 442.471 562.261C438.114 562.261 434.582 565.723 434.582 569.991V599.753C434.582 600.738 433.766 601.537 432.763 601.537H312.376C311.374 601.537 310.557 600.738 310.557 599.753V542.261H442.473C446.83 542.261 450.361 538.799 450.361 534.531V496.807C472.549 491.239 489 471.479 489 448.022V347.524C489 337.282 484.531 328.047 477.411 321.581ZM278.872 246.515C283.58 250.949 289.853 253.449 296.46 253.449C303.068 253.449 309.341 250.948 314.048 246.515V308.557V308.573C314.048 310.545 312.411 312.149 310.4 312.149H304.348V286.538C304.348 282.268 300.816 278.806 296.459 278.806C292.103 278.806 288.57 282.268 288.57 286.538V312.149H282.519C280.507 312.149 278.87 310.544 278.87 308.573V246.515H278.872ZM449.324 278.808C444.967 278.808 441.436 282.269 441.436 286.539V312.15H435.385C433.373 312.15 431.736 310.545 431.736 308.575V308.573V261.979C436.444 266.414 442.718 268.913 449.325 268.913C455.934 268.913 462.207 266.412 466.913 261.978V308.575C466.913 310.546 465.277 312.15 463.265 312.15H457.213V286.539C457.213 282.269 453.681 278.808 449.324 278.808ZM415.958 308.572C415.958 310.544 414.322 312.148 412.31 312.148H406.258V287.713C406.258 283.443 402.726 279.981 398.369 279.981C394.012 279.981 390.481 283.443 390.481 287.713V312.148H384.429C382.417 312.148 380.782 310.543 380.782 308.572V308.557V243.565C385.489 248 391.763 250.5 398.37 250.5C404.979 250.5 411.252 247.999 415.958 243.564V308.572ZM365.004 308.557C365.004 310.529 363.368 312.132 361.356 312.132H355.304V287.504C355.304 283.234 351.772 279.772 347.415 279.772C343.058 279.772 339.527 283.234 339.527 287.504V312.132H333.476C331.464 312.132 329.827 310.528 329.827 308.557V225.832C334.535 230.267 340.808 232.767 347.416 232.767C354.025 232.767 360.299 230.266 365.005 225.831V308.557H365.004ZM449.324 179.843C459.022 179.843 466.913 187.576 466.913 197.082V238.17L456.69 250.086C453.781 253.323 447.144 255.314 441.956 250.086L431.734 238.17V197.082C431.736 187.576 439.625 179.843 449.324 179.843ZM329.827 119.702C329.827 110.196 337.717 102.463 347.415 102.463C357.113 102.463 365.004 110.196 365.004 119.702V144.651V157.967C365.004 162.237 368.536 165.699 372.893 165.699C377.25 165.699 380.782 162.237 380.782 157.967V144.651C380.782 135.145 388.671 127.413 398.369 127.413C408.067 127.413 415.958 135.145 415.958 144.651V219.759L405.735 231.674C402.826 234.912 396.188 236.902 391.001 231.674L380.78 219.759V195.207C380.78 190.937 377.247 187.476 372.891 187.476C368.534 187.476 365.002 190.937 365.002 195.207V202.026L354.78 213.941C351.87 217.177 345.233 219.17 340.045 213.941L329.825 202.026V119.702H329.827ZM278.872 163.063C278.872 153.557 286.761 145.825 296.46 145.825C306.159 145.825 314.049 153.557 314.049 163.063V222.708L303.827 234.624C300.917 237.86 294.28 239.853 289.093 234.624L278.872 222.708V163.063ZM177.226 334.282C175.846 332.055 175.435 329.435 176.067 326.904L187.981 279.2C188.257 278.096 189.011 277.507 189.436 277.255C189.862 277.002 190.745 276.617 191.869 276.888C201.858 279.284 208.798 287.998 208.746 298.078L208.593 327.638C205.207 328.243 201.902 329.515 198.885 331.489L189.405 337.698C186.286 340.044 180.428 339.166 177.226 334.282ZM221.137 414.944L194.788 363.007C192.565 358.627 194.02 353.274 198.17 350.555L207.65 344.346C211.493 341.83 216.547 342.221 219.939 345.299L256.139 378.141V444.881C240.96 439.847 228.3 429.063 221.137 414.944ZM473.223 448.022C473.223 467.26 457.253 482.911 437.625 482.911H366.935C362.578 482.911 359.046 486.373 359.046 490.643C359.046 494.914 362.578 498.375 366.935 498.375H434.583V526.801H310.557V498.375H329.465C333.822 498.375 337.354 494.914 337.354 490.643C337.354 486.373 333.822 482.911 329.465 482.911H307.516C287.887 482.911 271.918 467.261 271.918 448.022V347.524C271.918 337.772 279.114 329.65 288.572 327.954V338.469C288.572 342.739 292.103 346.2 296.46 346.2C300.817 346.2 304.349 342.739 304.349 338.469V327.612H339.525V339.435C339.525 343.705 343.058 347.166 347.414 347.166C351.771 347.166 355.303 343.705 355.303 339.435V327.612H390.481V339.643C390.481 343.912 394.012 347.374 398.369 347.374C402.726 347.374 406.258 343.912 406.258 339.643V327.612H441.436V338.469C441.436 342.739 444.967 346.2 449.324 346.2C453.681 346.2 457.213 342.739 457.213 338.469V328.073C466.352 330.014 473.224 337.993 473.224 347.525V448.022H473.223Z" stroke="#263C5D" stroke-width="4" mask="url(#path-2-outside-1_1254_322)"/>
</svg>
