<svg width="117" height="117" viewBox="0 0 117 117" fill="none" xmlns="http://www.w3.org/2000/svg">
<g id="InnovatorIcon">
<g id="Group">
<path id="Vector" d="M116.854 77.2758C116.339 74.4925 114.487 72.1422 111.901 70.9898C108.898 69.6508 105.339 70.1614 102.823 72.3002L84.3955 88.149C83.6349 83.7581 79.7975 80.408 75.1923 80.408H57.7993L54.642 78.4764C49.512 75.3378 43.6215 73.6784 37.6069 73.6784H36.6598C30.9389 73.6784 25.4661 75.569 21.0234 78.9843V78.6094C21.0234 76.0894 18.973 74.0391 16.4531 74.0391H4.57031C2.05039 74.0391 0 76.0894 0 78.6094V112.43C0 114.95 2.05039 117 4.57031 117H16.4531C18.1402 117 19.6131 116.079 20.4048 114.715H37.9336C39.1958 114.715 40.2187 113.692 40.2187 112.43C40.2187 111.167 39.1958 110.145 37.9336 110.145H21.0234V85.1783C25.0225 80.7642 30.6755 78.2487 36.6598 78.2487H37.6069C42.7788 78.2487 47.8455 79.6761 52.2569 82.3754L55.9631 84.6427C56.322 84.8623 56.7352 84.9783 57.1557 84.9783H75.1923C77.823 84.9783 79.9626 87.118 79.9626 89.7486C79.9626 92.3007 77.9479 94.3912 75.4262 94.5135C75.4102 94.5135 75.3941 94.5135 75.378 94.5135H51.7204C50.4591 94.5135 49.4352 95.5374 49.4352 96.7987C49.4352 98.0609 50.4582 99.0838 51.7204 99.0838L75.1923 99.0892C75.3173 99.0892 75.4414 99.0865 75.5646 99.082C77.6337 99.0392 79.6297 98.276 81.2016 96.9245L105.793 75.7735C106.967 74.7755 108.634 74.5363 110.041 75.1638C111.27 75.7119 112.115 76.7848 112.361 78.1086C112.606 79.4315 112.201 80.7365 111.25 81.6881L89.7834 103.166C85.2854 107.666 79.3038 110.145 72.9411 110.145H58.5C57.2378 110.145 56.2148 111.167 56.2148 112.43C56.2148 113.692 57.2378 114.715 58.5 114.715H72.9411C80.525 114.715 87.6545 111.761 93.0157 106.396L114.482 84.9194C116.483 82.9172 117.37 80.0599 116.854 77.2758V77.2758ZM4.57031 112.43L4.56763 78.6094H4.57031H16.4531V112.43H4.57031Z" fill="#FFCC00"/>
<path id="Vector_2" d="M14.3974 27.2443L31.5352 37.032V52.6032C31.5352 53.9315 32.1993 55.1562 33.3124 55.881L50.6376 67.1631C52.1926 68.1753 53.9752 68.6824 55.7578 68.6815C57.5404 68.6815 59.323 68.1753 60.878 67.1631L78.2041 55.881C79.3164 55.1562 79.9805 53.9315 79.9805 52.6032V37.032L93.7003 29.1965V36.5143C90.5279 37.4926 88.216 40.4509 88.216 43.9402V62.8989C88.216 64.1602 89.2389 65.1841 90.5011 65.1841H101.47C102.732 65.1841 103.755 64.1602 103.755 62.8989V43.9402C103.755 40.4509 101.443 37.4918 98.2707 36.5143V25.2599C98.2707 24.4396 97.8306 23.6826 97.1183 23.2756L56.8915 0.30084C56.189 -0.0999546 55.3267 -0.0999546 54.6242 0.30084L14.3974 23.2756C13.6851 23.6817 13.245 24.4396 13.245 25.2599C13.245 26.0803 13.6851 26.8372 14.3974 27.2443V27.2443ZM75.4102 52.2462L58.384 63.3328C56.7888 64.3718 54.7268 64.3718 53.1317 63.3328L36.1055 52.2462V39.6421L54.6251 50.2181C54.9759 50.419 55.3669 50.5189 55.7578 50.5189C56.1488 50.5189 56.5407 50.419 56.8915 50.2181L75.4102 39.6421V52.2462ZM99.1847 60.6129H92.7863V43.9402C92.7863 42.1754 94.2208 40.741 95.9855 40.741C97.7494 40.741 99.1847 42.1754 99.1847 43.9402V60.6129ZM55.7578 4.91668L87.376 22.9748H62.1411C61.1413 20.4245 58.6571 18.6124 55.7569 18.6124C51.9766 18.6124 48.9015 21.6885 48.9015 25.4679C48.9015 29.2482 51.9766 32.3234 55.7569 32.3234C58.8133 32.3234 61.4082 30.3123 62.2902 27.5451H87.376L55.7578 45.6023L20.138 25.2599L55.7578 4.91668ZM58.0421 25.4679C58.0421 26.7283 57.0173 27.7531 55.7569 27.7531C54.4965 27.7531 53.4718 26.7283 53.4718 25.4679C53.4718 24.2084 54.4965 23.1828 55.7569 23.1828C57.0173 23.1828 58.0421 24.2084 58.0421 25.4679Z" fill="#FFCC00"/>
<path id="Vector_3" d="M48.2168 110.145C47.6161 110.145 47.026 110.389 46.6011 110.814C46.1762 111.239 45.9316 111.829 45.9316 112.43C45.9316 113.03 46.1762 113.62 46.6011 114.045C47.026 114.47 47.6161 114.715 48.2168 114.715C48.8175 114.715 49.4076 114.47 49.8325 114.045C50.2574 113.62 50.502 113.03 50.502 112.43C50.502 111.829 50.2574 111.239 49.8325 110.814C49.4076 110.389 48.8175 110.145 48.2168 110.145Z" fill="#FFCC00"/>
</g>
</g>
</svg>
