<svg width="235" height="73" viewBox="0 0 235 73" fill="none" xmlns="http://www.w3.org/2000/svg">
<g id="LogoWithText">
<g id="IconVersion">
<path id="Vector" d="M47.3807 25.1364C49.6705 24.8722 52.8409 25.8409 55.1307 28.1307L62 35L57.6847 39.3154L50.8154 32.446C49.8466 31.4773 48.7898 31.2131 47.821 31.3011C46.7642 31.3892 45.6193 32.0057 44.6506 32.9744C43.6818 33.9432 43.1534 35.0881 42.9773 36.1449C42.8892 37.1136 43.1534 38.0824 44.1222 39.0511L51.0796 46.0085L46.7642 50.3239L39.8068 43.3665C37.5171 41.0767 36.7244 38.1705 36.9887 35.5284C37.1648 33.679 37.8693 31.9176 38.9261 30.4205C39.6307 29.5398 42.9773 25.5767 47.3807 25.1364Z" fill="#0897FF"/>
<path id="Vector_2" d="M21.1364 18.6193C20.8722 16.3295 21.8409 13.1591 24.1307 10.8693L31 4L35.3153 8.31534L28.446 15.1847C27.4773 16.1534 27.2131 17.2102 27.3011 18.179C27.3892 19.2358 28.0057 20.3807 28.9744 21.3494C29.9432 22.3182 31.0881 22.8466 32.1449 23.0227C33.1136 23.1108 34.0824 22.8466 35.0511 21.8778L42.0085 14.9205L46.3239 19.2358L39.3665 26.1932C37.0767 28.483 34.1705 29.2756 31.5284 29.0114C29.679 28.8352 27.9176 28.1307 26.4205 27.0739C25.5398 26.3693 21.5767 23.0227 21.1364 18.6193Z" fill="#FF0808"/>
<path id="Vector_3" d="M14.6193 44.8636C12.3296 45.1278 9.15909 44.1591 6.86932 41.8693L0 35L4.31534 30.6847L11.1847 37.554C12.1534 38.5227 13.2102 38.7869 14.179 38.6989C15.2358 38.6108 16.3807 37.9943 17.3494 37.0256C18.3182 36.0568 18.8466 34.9119 19.0227 33.8551C19.1108 32.8864 18.8466 31.9176 17.8778 30.9489L10.9204 23.9915L15.2358 19.6761L22.1932 26.6335C24.4829 28.9233 25.2756 31.8295 25.0114 34.4716C24.8352 36.321 24.1307 38.0824 23.0739 39.5795C22.3693 40.4602 19.1108 44.4233 14.6193 44.8636Z" fill="#FFC908"/>
<path id="Vector_4" d="M40.9517 51.3807C41.2159 53.6705 40.2472 56.8409 37.9574 59.1307L31.0881 66L26.7727 61.6847L33.6421 54.8153C34.6108 53.8466 34.875 52.7898 34.787 51.821C34.6989 50.7642 34.0824 49.6193 33.1137 48.6506C32.1449 47.6818 31 47.1534 29.9432 46.9773C28.9745 46.8892 28.0057 47.1534 27.037 48.1222L20.0796 55.0795L15.7642 50.7642L22.7216 43.8068C25.0114 41.517 27.9176 40.7244 30.5597 40.9886C32.4091 41.1648 34.1705 41.8693 35.6676 42.9261C36.5483 43.6307 40.4233 46.8892 40.9517 51.3807Z" fill="#B008FF"/>
</g>
<text id="U4UC" fill="black" xml:space="preserve" style="white-space: pre" font-family="Roboto" font-size="62.5123" font-weight="900" letter-spacing="0em"><tspan x="74" y="57.8665">U4UC</tspan></text>
</g>
</svg>
