<svg width="563" height="178" viewBox="0 0 563 178" fill="none" xmlns="http://www.w3.org/2000/svg">
<path d="M135.632 60.508C142.186 59.7516 151.262 62.5249 157.817 69.0799L177.481 88.7449L165.128 101.099L145.464 81.4336C142.691 78.6603 139.665 77.9039 136.892 78.1561C133.867 78.4082 130.59 80.173 127.817 82.9462C125.043 85.7195 123.531 88.997 123.027 92.0224C122.775 94.7957 123.531 97.569 126.304 100.342L146.22 120.259L133.867 132.613L113.951 112.696C107.396 106.141 105.127 97.8211 105.884 90.2576C106.388 84.9632 108.405 79.9209 111.43 75.6349C113.447 73.1137 123.027 61.7685 135.632 60.508Z" fill="#0897FF"/>
<path d="M60.5047 41.8512C59.7484 35.2962 62.5215 26.22 69.0762 19.665L88.7403 0L101.093 12.3537L81.4293 32.0187C78.6561 34.792 77.8998 37.8173 78.1519 40.5906C78.404 43.616 80.1687 46.8935 82.9419 49.6668C85.715 52.44 88.9924 53.9527 92.0176 54.457C94.7907 54.7091 97.5639 53.9527 100.337 51.1795L120.253 31.2623L132.606 43.616L112.69 63.5331C106.135 70.0881 97.816 72.3572 90.2529 71.6008C84.9587 71.0966 79.9166 69.0797 75.6309 66.0543C73.1098 64.0374 61.7652 54.457 60.5047 41.8512Z" fill="#FF0808"/>
<path d="M41.8492 116.981C35.2945 117.738 26.2188 114.964 19.6641 108.409L0 88.7445L12.3531 76.3908L32.0171 96.0558C34.7903 98.8291 37.8156 99.5854 40.5887 99.3333C43.6139 99.0812 46.8913 97.3164 49.6644 94.5431C52.4375 91.7698 53.9502 88.4923 54.4544 85.467C54.7065 82.6937 53.9502 79.9204 51.177 77.1471L31.2608 57.23L43.6139 44.8763L63.5301 64.7935C70.0848 71.3485 72.3537 79.6683 71.5974 87.2318C71.0932 92.5262 69.0764 97.5685 66.0511 101.854C64.0343 104.376 54.7065 115.721 41.8492 116.981Z" fill="#FFCC00"/>
<path d="M117.228 135.638C117.985 142.193 115.211 151.269 108.657 157.824L88.9926 177.489L76.6395 165.136L96.3036 145.471C99.0768 142.697 99.8331 139.672 99.581 136.899C99.3289 133.873 97.5642 130.596 94.791 127.823C92.0179 125.049 88.7405 123.537 85.7153 123.032C82.9421 122.78 80.169 123.537 77.3959 126.31L57.4797 146.227L45.1266 133.873L65.0428 113.956C71.5975 107.401 79.9169 105.132 87.48 105.889C92.7742 106.393 97.8162 108.41 102.102 111.435C104.623 113.452 115.716 122.78 117.228 135.638Z" fill="#B008FF"/>
<path d="M266.31 140.38C254.81 140.38 245.84 137.198 239.4 130.835C233.037 124.472 229.855 115.387 229.855 103.58V58.5H248.485V102.89C248.485 117.303 254.465 124.51 266.425 124.51C272.252 124.51 276.698 122.785 279.765 119.335C282.832 115.808 284.365 110.327 284.365 102.89V58.5H302.765V103.58C302.765 115.387 299.545 124.472 293.105 130.835C286.742 137.198 277.81 140.38 266.31 140.38ZM389.83 122.095H376.72V139H358.55V122.095H315.195V109.56L353.145 58.5H372.695L337.505 106.915H359.125V91.85H376.72V106.915H389.83V122.095ZM436.227 140.38C424.727 140.38 415.757 137.198 409.317 130.835C402.954 124.472 399.772 115.387 399.772 103.58V58.5H418.402V102.89C418.402 117.303 424.382 124.51 436.342 124.51C442.169 124.51 446.615 122.785 449.682 119.335C452.749 115.808 454.282 110.327 454.282 102.89V58.5H472.682V103.58C472.682 115.387 469.462 124.472 463.022 130.835C456.659 137.198 447.727 140.38 436.227 140.38ZM519.727 139.92C513.134 139.92 507.192 138.578 501.902 135.895C496.689 133.135 492.587 129.34 489.597 124.51C486.684 119.68 485.227 114.198 485.227 108.065C485.227 101.932 486.684 96.45 489.597 91.62C492.587 86.79 496.689 83.0333 501.902 80.35C507.192 77.59 513.134 76.21 519.727 76.21C526.244 76.21 531.917 77.59 536.747 80.35C541.654 83.0333 545.219 86.905 547.442 91.965L533.527 99.44C530.307 93.7667 525.669 90.93 519.612 90.93C514.935 90.93 511.064 92.4633 507.997 95.53C504.93 98.5967 503.397 102.775 503.397 108.065C503.397 113.355 504.93 117.533 507.997 120.6C511.064 123.667 514.935 125.2 519.612 125.2C525.745 125.2 530.384 122.363 533.527 116.69L547.442 124.28C545.219 129.187 541.654 133.02 536.747 135.78C531.917 138.54 526.244 139.92 519.727 139.92Z" fill="black"/>
</svg>
