<svg xmlns="http://www.w3.org/2000/svg" viewBox="0 0 244.63 74.93"><defs><style>.cls-1{fill:#ffce00;}</style></defs><g id="Layer_2" data-name="Layer 2"><g id="Layer_1-2" data-name="Layer 1"><path class="cls-1" d="M58.23,0V48.38a27.77,27.77,0,0,1-3.51,14.24,22.64,22.64,0,0,1-10,9.16,35.34,35.34,0,0,1-15.48,3.15q-13.5,0-21.27-7T0,48.73V0H17.92V49.09q.3,12.13,11.27,12.13,5.54,0,8.38-3t2.84-9.9V0Z"/><path class="cls-1" d="M113.46,45H121v13.2h-7.51V73.91H96.35V58.23H67.77l-1-10.46L96.35.15V0h17.11ZM83.05,45h13.3V22.29L95.29,24Z"/><path class="cls-1" d="M187.52,0V48.38A27.76,27.76,0,0,1,184,62.62,22.64,22.64,0,0,1,174,71.78a35.4,35.4,0,0,1-15.48,3.15q-13.52,0-21.27-7T129.3,48.73V0h17.92V49.09q.3,12.13,11.27,12.13c3.68,0,6.48-1,8.37-3s2.85-5.33,2.85-9.9V0Z"/><path class="cls-1" d="M221.08,61.73a7.61,7.61,0,0,0,5.58-1.95,7.17,7.17,0,0,0,1.93-5.46h16a19,19,0,0,1-6.47,14.82q-6.47,5.79-16.67,5.79-12,0-18.89-7.51T195.7,46.6v-.71a33.45,33.45,0,0,1,3.07-14.7,22.36,22.36,0,0,1,8.86-9.79A26.34,26.34,0,0,1,221.33,18q10.71,0,17,5.94T244.63,40h-16q0-4.26-2.08-6.55a7.19,7.19,0,0,0-5.58-2.28q-6.66,0-7.77,8.48a59,59,0,0,0-.36,7.41q0,8.28,2,11.47A6.84,6.84,0,0,0,221.08,61.73Z"/></g></g></svg>