<svg width="1489" height="201" viewBox="0 0 1489 201" fill="none" xmlns="http://www.w3.org/2000/svg">
<path d="M136.029 71.6821C142.602 70.9236 151.705 73.7049 158.279 80.2787L178 100L165.611 112.39L145.889 92.6679C143.108 89.8867 140.074 89.1282 137.293 89.381C134.259 89.6339 130.972 91.4037 128.19 94.185C125.409 96.9662 123.892 100.253 123.387 103.287C123.134 106.069 123.892 108.85 126.673 111.631L146.648 131.605L134.259 143.995L114.284 124.02C107.71 117.446 105.435 109.103 106.193 101.517C106.699 96.2077 108.722 91.1509 111.756 86.8526C113.779 84.3242 123.387 72.9463 136.029 71.6821Z" fill="#0897FF"/>
<path d="M60.6817 52.9716C59.9231 46.3977 62.7044 37.2955 69.2782 30.7216L88.9998 11L101.389 23.3892L81.6675 43.1108C78.8862 45.8921 78.1277 48.9262 78.3805 51.7074C78.6334 54.7415 80.4032 58.0284 83.1845 60.8097C85.9657 63.5909 89.2527 65.108 92.2868 65.6137C95.068 65.8665 97.8493 65.108 100.631 62.3267L120.605 42.3523L132.994 54.7415L113.02 74.7159C106.446 81.2898 98.1021 83.5654 90.5169 82.8068C85.2072 82.3012 80.1504 80.2784 75.8521 77.2443C73.3237 75.2216 61.9459 65.6137 60.6817 52.9716Z" fill="#FF0808"/>
<path d="M41.9716 128.318C35.3977 129.076 26.2955 126.295 19.7216 119.721L0 99.9997L12.3892 87.6105L32.1108 107.332C34.892 110.113 37.9261 110.872 40.7074 110.619C43.7415 110.366 47.0284 108.596 49.8096 105.815C52.5909 103.034 54.108 99.7469 54.6136 96.7128C54.8665 93.9315 54.108 91.1503 51.3267 88.369L31.3523 68.3946L43.7415 56.0054L63.7159 75.9798C70.2898 82.5537 72.5653 90.8974 71.8068 98.4827C71.3011 103.792 69.2784 108.849 66.2443 113.147C64.2216 115.676 54.8665 127.054 41.9716 128.318Z" fill="#FFCC00"/>
<path d="M117.571 147.028C118.33 153.602 115.548 162.704 108.974 169.278L89.2529 189L76.8637 176.611L96.5853 156.889C99.3665 154.108 100.125 151.074 99.8722 148.292C99.6194 145.258 97.8495 141.971 95.0682 139.19C92.287 136.409 89 134.892 85.9659 134.386C83.1847 134.133 80.4034 134.892 77.6222 137.673L57.6478 157.648L45.2585 145.258L65.233 125.284C71.8069 118.71 80.1506 116.435 87.7358 117.193C93.0455 117.699 98.1023 119.721 102.401 122.756C104.929 124.778 116.054 134.133 117.571 147.028Z" fill="#B008FF"/>
<path d="M270.31 142.38C258.81 142.38 249.84 139.198 243.4 132.835C237.037 126.472 233.855 117.387 233.855 105.58V60.5H252.485V104.89C252.485 119.303 258.465 126.51 270.425 126.51C276.252 126.51 280.698 124.785 283.765 121.335C286.832 117.808 288.365 112.327 288.365 104.89V60.5H306.765V105.58C306.765 117.387 303.545 126.472 297.105 132.835C290.742 139.198 281.81 142.38 270.31 142.38ZM393.83 124.095H380.72V141H362.55V124.095H319.195V111.56L357.145 60.5H376.695L341.505 108.915H363.125V93.85H380.72V108.915H393.83V124.095ZM440.227 142.38C428.727 142.38 419.757 139.198 413.317 132.835C406.954 126.472 403.772 117.387 403.772 105.58V60.5H422.402V104.89C422.402 119.303 428.382 126.51 440.342 126.51C446.169 126.51 450.615 124.785 453.682 121.335C456.749 117.808 458.282 112.327 458.282 104.89V60.5H476.682V105.58C476.682 117.387 473.462 126.472 467.022 132.835C460.659 139.198 451.727 142.38 440.227 142.38ZM533.617 142.38C525.414 142.38 517.977 140.617 511.307 137.09C504.714 133.487 499.5 128.542 495.667 122.255C491.91 115.892 490.032 108.723 490.032 100.75C490.032 92.7767 491.91 85.6467 495.667 79.36C499.5 72.9967 504.714 68.0517 511.307 64.525C517.977 60.9217 525.452 59.12 533.732 59.12C540.709 59.12 546.995 60.3467 552.592 62.8C558.265 65.2533 563.019 68.78 566.852 73.38L554.892 84.42C549.449 78.1333 542.702 74.99 534.652 74.99C529.669 74.99 525.222 76.1017 521.312 78.325C517.402 80.4717 514.335 83.5 512.112 87.41C509.965 91.32 508.892 95.7667 508.892 100.75C508.892 105.733 509.965 110.18 512.112 114.09C514.335 118 517.402 121.067 521.312 123.29C525.222 125.437 529.669 126.51 534.652 126.51C542.702 126.51 549.449 123.328 554.892 116.965L566.852 128.005C563.019 132.682 558.265 136.247 552.592 138.7C546.919 141.153 540.594 142.38 533.617 142.38Z" fill="black"/>
<path d="M737.625 88.6C730.625 88.6 725.175 86.6 721.275 82.6C717.375 78.6 715.425 72.85 715.425 65.35V35.5H722.925V65.05C722.925 76.3 727.85 81.925 737.7 81.925C742.5 81.925 746.175 80.55 748.725 77.8C751.275 75 752.55 70.75 752.55 65.05V35.5H759.825V65.35C759.825 72.9 757.875 78.675 753.975 82.675C750.075 86.625 744.625 88.6 737.625 88.6ZM794.626 47.875C799.676 47.875 803.676 49.35 806.626 52.3C809.626 55.2 811.126 59.475 811.126 65.125V88H803.926V65.95C803.926 62.1 803.001 59.2 801.151 57.25C799.301 55.3 796.651 54.325 793.201 54.325C789.301 54.325 786.226 55.475 783.976 57.775C781.726 60.025 780.601 63.275 780.601 67.525V88H773.401V48.25H780.301V54.25C781.751 52.2 783.701 50.625 786.151 49.525C788.651 48.425 791.476 47.875 794.626 47.875ZM823.701 48.25H830.901V88H823.701V48.25ZM827.301 40.6C825.901 40.6 824.726 40.15 823.776 39.25C822.876 38.35 822.426 37.25 822.426 35.95C822.426 34.65 822.876 33.55 823.776 32.65C824.726 31.7 825.901 31.225 827.301 31.225C828.701 31.225 829.851 31.675 830.751 32.575C831.701 33.425 832.176 34.5 832.176 35.8C832.176 37.15 831.701 38.3 830.751 39.25C829.851 40.15 828.701 40.6 827.301 40.6ZM881.398 48.25V102.55H874.198V82C872.548 84.1 870.523 85.7 868.123 86.8C865.773 87.9 863.173 88.45 860.323 88.45C856.473 88.45 853.023 87.6 849.973 85.9C846.923 84.2 844.523 81.825 842.773 78.775C841.073 75.675 840.223 72.125 840.223 68.125C840.223 64.125 841.073 60.6 842.773 57.55C844.523 54.5 846.923 52.125 849.973 50.425C853.023 48.725 856.473 47.875 860.323 47.875C863.273 47.875 865.973 48.45 868.423 49.6C870.873 50.7 872.898 52.35 874.498 54.55V48.25H881.398ZM860.923 82.15C863.423 82.15 865.698 81.575 867.748 80.425C869.798 79.225 871.398 77.575 872.548 75.475C873.698 73.325 874.273 70.875 874.273 68.125C874.273 65.375 873.673 62.95 872.473 60.85C871.323 58.75 869.723 57.125 867.673 55.975C865.673 54.775 863.423 54.175 860.923 54.175C858.373 54.175 856.073 54.75 854.023 55.9C852.023 57.05 850.423 58.7 849.223 60.85C848.073 62.95 847.498 65.375 847.498 68.125C847.498 70.875 848.073 73.325 849.223 75.475C850.423 77.575 852.023 79.225 854.023 80.425C856.073 81.575 858.373 82.15 860.923 82.15ZM931.321 48.25V88H924.496V82C923.046 84.05 921.121 85.65 918.721 86.8C916.371 87.9 913.796 88.45 910.996 88.45C905.696 88.45 901.521 87 898.471 84.1C895.421 81.15 893.896 76.825 893.896 71.125V48.25H901.096V70.3C901.096 74.15 902.021 77.075 903.871 79.075C905.721 81.025 908.371 82 911.821 82C915.621 82 918.621 80.85 920.821 78.55C923.021 76.25 924.121 73 924.121 68.8V48.25H931.321ZM980.203 68.35C980.203 68.9 980.153 69.625 980.053 70.525H947.803C948.253 74.025 949.778 76.85 952.378 79C955.028 81.1 958.303 82.15 962.203 82.15C966.953 82.15 970.778 80.55 973.678 77.35L977.653 82C975.853 84.1 973.603 85.7 970.903 86.8C968.253 87.9 965.278 88.45 961.978 88.45C957.778 88.45 954.053 87.6 950.803 85.9C947.553 84.15 945.028 81.725 943.228 78.625C941.478 75.525 940.603 72.025 940.603 68.125C940.603 64.275 941.453 60.8 943.153 57.7C944.903 54.6 947.278 52.2 950.278 50.5C953.328 48.75 956.753 47.875 960.553 47.875C964.353 47.875 967.728 48.75 970.678 50.5C973.678 52.2 976.003 54.6 977.653 57.7C979.353 60.8 980.203 64.35 980.203 68.35ZM960.553 53.95C957.103 53.95 954.203 55 951.853 57.1C949.553 59.2 948.203 61.95 947.803 65.35H973.303C972.903 62 971.528 59.275 969.178 57.175C966.878 55.025 964.003 53.95 960.553 53.95ZM1009.89 35.5H1017.39V88H1009.89V35.5ZM1052.54 47.875C1057.59 47.875 1061.59 49.35 1064.54 52.3C1067.54 55.2 1069.04 59.475 1069.04 65.125V88H1061.84V65.95C1061.84 62.1 1060.91 59.2 1059.06 57.25C1057.21 55.3 1054.56 54.325 1051.11 54.325C1047.21 54.325 1044.14 55.475 1041.89 57.775C1039.64 60.025 1038.51 63.275 1038.51 67.525V88H1031.31V48.25H1038.21V54.25C1039.66 52.2 1041.61 50.625 1044.06 49.525C1046.56 48.425 1049.39 47.875 1052.54 47.875ZM1102.84 47.875C1107.89 47.875 1111.89 49.35 1114.84 52.3C1117.84 55.2 1119.34 59.475 1119.34 65.125V88H1112.14V65.95C1112.14 62.1 1111.21 59.2 1109.36 57.25C1107.51 55.3 1104.86 54.325 1101.41 54.325C1097.51 54.325 1094.44 55.475 1092.19 57.775C1089.94 60.025 1088.81 63.275 1088.81 67.525V88H1081.61V48.25H1088.51V54.25C1089.96 52.2 1091.91 50.625 1094.36 49.525C1096.86 48.425 1099.69 47.875 1102.84 47.875ZM1149.15 88.45C1145.2 88.45 1141.65 87.575 1138.5 85.825C1135.35 84.075 1132.88 81.675 1131.08 78.625C1129.33 75.525 1128.45 72.025 1128.45 68.125C1128.45 64.225 1129.33 60.75 1131.08 57.7C1132.88 54.6 1135.35 52.2 1138.5 50.5C1141.65 48.75 1145.2 47.875 1149.15 47.875C1153.1 47.875 1156.63 48.75 1159.73 50.5C1162.88 52.2 1165.33 54.6 1167.08 57.7C1168.88 60.75 1169.78 64.225 1169.78 68.125C1169.78 72.025 1168.88 75.525 1167.08 78.625C1165.33 81.675 1162.88 84.075 1159.73 85.825C1156.63 87.575 1153.1 88.45 1149.15 88.45ZM1149.15 82.15C1151.7 82.15 1153.98 81.575 1155.98 80.425C1158.03 79.225 1159.63 77.575 1160.78 75.475C1161.93 73.325 1162.5 70.875 1162.5 68.125C1162.5 65.375 1161.93 62.95 1160.78 60.85C1159.63 58.7 1158.03 57.05 1155.98 55.9C1153.98 54.75 1151.7 54.175 1149.15 54.175C1146.6 54.175 1144.3 54.75 1142.25 55.9C1140.25 57.05 1138.65 58.7 1137.45 60.85C1136.3 62.95 1135.73 65.375 1135.73 68.125C1135.73 70.875 1136.3 73.325 1137.45 75.475C1138.65 77.575 1140.25 79.225 1142.25 80.425C1144.3 81.575 1146.6 82.15 1149.15 82.15ZM1213.06 48.25L1195.66 88H1188.31L1170.91 48.25H1178.41L1192.06 80.125L1206.01 48.25H1213.06ZM1232.26 47.875C1237.76 47.875 1241.96 49.225 1244.86 51.925C1247.81 54.625 1249.29 58.65 1249.29 64V88H1242.46V82.75C1241.26 84.6 1239.54 86.025 1237.29 87.025C1235.09 87.975 1232.46 88.45 1229.41 88.45C1224.96 88.45 1221.39 87.375 1218.69 85.225C1216.04 83.075 1214.71 80.25 1214.71 76.75C1214.71 73.25 1215.99 70.45 1218.54 68.35C1221.09 66.2 1225.14 65.125 1230.69 65.125H1242.09V63.7C1242.09 60.6 1241.19 58.225 1239.39 56.575C1237.59 54.925 1234.94 54.1 1231.44 54.1C1229.09 54.1 1226.79 54.5 1224.54 55.3C1222.29 56.05 1220.39 57.075 1218.84 58.375L1215.84 52.975C1217.89 51.325 1220.34 50.075 1223.19 49.225C1226.04 48.325 1229.06 47.875 1232.26 47.875ZM1230.61 82.9C1233.36 82.9 1235.74 82.3 1237.74 81.1C1239.74 79.85 1241.19 78.1 1242.09 75.85V70.3H1230.99C1224.89 70.3 1221.84 72.35 1221.84 76.45C1221.84 78.45 1222.61 80.025 1224.16 81.175C1225.71 82.325 1227.86 82.9 1230.61 82.9ZM1284.21 85.675C1283.16 86.575 1281.86 87.275 1280.31 87.775C1278.76 88.225 1277.16 88.45 1275.51 88.45C1271.51 88.45 1268.41 87.375 1266.21 85.225C1264.01 83.075 1262.91 80 1262.91 76V54.175H1256.16V48.25H1262.91V39.55H1270.11V48.25H1281.51V54.175H1270.11V75.7C1270.11 77.85 1270.64 79.5 1271.69 80.65C1272.79 81.8 1274.34 82.375 1276.34 82.375C1278.54 82.375 1280.41 81.75 1281.96 80.5L1284.21 85.675ZM1292.17 48.25H1299.37V88H1292.17V48.25ZM1295.77 40.6C1294.37 40.6 1293.19 40.15 1292.24 39.25C1291.34 38.35 1290.89 37.25 1290.89 35.95C1290.89 34.65 1291.34 33.55 1292.24 32.65C1293.19 31.7 1294.37 31.225 1295.77 31.225C1297.17 31.225 1298.32 31.675 1299.22 32.575C1300.17 33.425 1300.64 34.5 1300.64 35.8C1300.64 37.15 1300.17 38.3 1299.22 39.25C1298.32 40.15 1297.17 40.6 1295.77 40.6ZM1329.39 88.45C1325.44 88.45 1321.89 87.575 1318.74 85.825C1315.59 84.075 1313.11 81.675 1311.31 78.625C1309.56 75.525 1308.69 72.025 1308.69 68.125C1308.69 64.225 1309.56 60.75 1311.31 57.7C1313.11 54.6 1315.59 52.2 1318.74 50.5C1321.89 48.75 1325.44 47.875 1329.39 47.875C1333.34 47.875 1336.86 48.75 1339.96 50.5C1343.11 52.2 1345.56 54.6 1347.31 57.7C1349.11 60.75 1350.01 64.225 1350.01 68.125C1350.01 72.025 1349.11 75.525 1347.31 78.625C1345.56 81.675 1343.11 84.075 1339.96 85.825C1336.86 87.575 1333.34 88.45 1329.39 88.45ZM1329.39 82.15C1331.94 82.15 1334.21 81.575 1336.21 80.425C1338.26 79.225 1339.86 77.575 1341.01 75.475C1342.16 73.325 1342.74 70.875 1342.74 68.125C1342.74 65.375 1342.16 62.95 1341.01 60.85C1339.86 58.7 1338.26 57.05 1336.21 55.9C1334.21 54.75 1331.94 54.175 1329.39 54.175C1326.84 54.175 1324.54 54.75 1322.49 55.9C1320.49 57.05 1318.89 58.7 1317.69 60.85C1316.54 62.95 1315.96 65.375 1315.96 68.125C1315.96 70.875 1316.54 73.325 1317.69 75.475C1318.89 77.575 1320.49 79.225 1322.49 80.425C1324.54 81.575 1326.84 82.15 1329.39 82.15ZM1380.45 47.875C1385.5 47.875 1389.5 49.35 1392.45 52.3C1395.45 55.2 1396.95 59.475 1396.95 65.125V88H1389.75V65.95C1389.75 62.1 1388.82 59.2 1386.97 57.25C1385.12 55.3 1382.47 54.325 1379.02 54.325C1375.12 54.325 1372.05 55.475 1369.8 57.775C1367.55 60.025 1366.42 63.275 1366.42 67.525V88H1359.22V48.25H1366.12V54.25C1367.57 52.2 1369.52 50.625 1371.97 49.525C1374.47 48.425 1377.3 47.875 1380.45 47.875ZM1420.92 88.45C1417.67 88.45 1414.55 88.025 1411.55 87.175C1408.55 86.275 1406.2 85.15 1404.5 83.8L1407.5 78.1C1409.25 79.35 1411.37 80.35 1413.87 81.1C1416.37 81.85 1418.9 82.225 1421.45 82.225C1427.75 82.225 1430.9 80.425 1430.9 76.825C1430.9 75.625 1430.47 74.675 1429.62 73.975C1428.77 73.275 1427.7 72.775 1426.4 72.475C1425.15 72.125 1423.35 71.75 1421 71.35C1417.8 70.85 1415.17 70.275 1413.12 69.625C1411.12 68.975 1409.4 67.875 1407.95 66.325C1406.5 64.775 1405.77 62.6 1405.77 59.8C1405.77 56.2 1407.27 53.325 1410.27 51.175C1413.27 48.975 1417.3 47.875 1422.35 47.875C1425 47.875 1427.65 48.2 1430.3 48.85C1432.95 49.5 1435.12 50.375 1436.82 51.475L1433.75 57.175C1430.5 55.075 1426.67 54.025 1422.27 54.025C1419.22 54.025 1416.9 54.525 1415.3 55.525C1413.7 56.525 1412.9 57.85 1412.9 59.5C1412.9 60.8 1413.35 61.825 1414.25 62.575C1415.15 63.325 1416.25 63.875 1417.55 64.225C1418.9 64.575 1420.77 64.975 1423.17 65.425C1426.37 65.975 1428.95 66.575 1430.9 67.225C1432.9 67.825 1434.6 68.875 1436 70.375C1437.4 71.875 1438.1 73.975 1438.1 76.675C1438.1 80.275 1436.55 83.15 1433.45 85.3C1430.4 87.4 1426.22 88.45 1420.92 88.45ZM757.275 166.1H747.3V179H740.025V166.1H710.85V160.85L737.7 126.5H745.8L720.075 159.65H740.25V148.25H747.3V159.65H757.275V166.1ZM806.438 179.6C799.438 179.6 793.988 177.6 790.088 173.6C786.188 169.6 784.238 163.85 784.238 156.35V126.5H791.738V156.05C791.738 167.3 796.663 172.925 806.513 172.925C811.313 172.925 814.988 171.55 817.538 168.8C820.088 166 821.363 161.75 821.363 156.05V126.5H828.638V156.35C828.638 163.9 826.688 169.675 822.788 173.675C818.888 177.625 813.438 179.6 806.438 179.6ZM863.439 138.875C868.489 138.875 872.489 140.35 875.439 143.3C878.439 146.2 879.939 150.475 879.939 156.125V179H872.739V156.95C872.739 153.1 871.814 150.2 869.964 148.25C868.114 146.3 865.464 145.325 862.014 145.325C858.114 145.325 855.039 146.475 852.789 148.775C850.539 151.025 849.414 154.275 849.414 158.525V179H842.214V139.25H849.114V145.25C850.564 143.2 852.514 141.625 854.964 140.525C857.464 139.425 860.289 138.875 863.439 138.875ZM892.513 139.25H899.713V179H892.513V139.25ZM896.113 131.6C894.713 131.6 893.538 131.15 892.588 130.25C891.688 129.35 891.238 128.25 891.238 126.95C891.238 125.65 891.688 124.55 892.588 123.65C893.538 122.7 894.713 122.225 896.113 122.225C897.513 122.225 898.663 122.675 899.563 123.575C900.513 124.425 900.988 125.5 900.988 126.8C900.988 128.15 900.513 129.3 899.563 130.25C898.663 131.15 897.513 131.6 896.113 131.6ZM950.211 139.25V193.55H943.011V173C941.361 175.1 939.336 176.7 936.936 177.8C934.586 178.9 931.986 179.45 929.136 179.45C925.286 179.45 921.836 178.6 918.786 176.9C915.736 175.2 913.336 172.825 911.586 169.775C909.886 166.675 909.036 163.125 909.036 159.125C909.036 155.125 909.886 151.6 911.586 148.55C913.336 145.5 915.736 143.125 918.786 141.425C921.836 139.725 925.286 138.875 929.136 138.875C932.086 138.875 934.786 139.45 937.236 140.6C939.686 141.7 941.711 143.35 943.311 145.55V139.25H950.211ZM929.736 173.15C932.236 173.15 934.511 172.575 936.561 171.425C938.611 170.225 940.211 168.575 941.361 166.475C942.511 164.325 943.086 161.875 943.086 159.125C943.086 156.375 942.486 153.95 941.286 151.85C940.136 149.75 938.536 148.125 936.486 146.975C934.486 145.775 932.236 145.175 929.736 145.175C927.186 145.175 924.886 145.75 922.836 146.9C920.836 148.05 919.236 149.7 918.036 151.85C916.886 153.95 916.311 156.375 916.311 159.125C916.311 161.875 916.886 164.325 918.036 166.475C919.236 168.575 920.836 170.225 922.836 171.425C924.886 172.575 927.186 173.15 929.736 173.15ZM1000.13 139.25V179H993.309V173C991.859 175.05 989.934 176.65 987.534 177.8C985.184 178.9 982.609 179.45 979.809 179.45C974.509 179.45 970.334 178 967.284 175.1C964.234 172.15 962.709 167.825 962.709 162.125V139.25H969.909V161.3C969.909 165.15 970.834 168.075 972.684 170.075C974.534 172.025 977.184 173 980.634 173C984.434 173 987.434 171.85 989.634 169.55C991.834 167.25 992.934 164 992.934 159.8V139.25H1000.13ZM1049.02 159.35C1049.02 159.9 1048.97 160.625 1048.87 161.525H1016.62C1017.07 165.025 1018.59 167.85 1021.19 170C1023.84 172.1 1027.12 173.15 1031.02 173.15C1035.77 173.15 1039.59 171.55 1042.49 168.35L1046.47 173C1044.67 175.1 1042.42 176.7 1039.72 177.8C1037.07 178.9 1034.09 179.45 1030.79 179.45C1026.59 179.45 1022.87 178.6 1019.62 176.9C1016.37 175.15 1013.84 172.725 1012.04 169.625C1010.29 166.525 1009.42 163.025 1009.42 159.125C1009.42 155.275 1010.27 151.8 1011.97 148.7C1013.72 145.6 1016.09 143.2 1019.09 141.5C1022.14 139.75 1025.57 138.875 1029.37 138.875C1033.17 138.875 1036.54 139.75 1039.49 141.5C1042.49 143.2 1044.82 145.6 1046.47 148.7C1048.17 151.8 1049.02 155.35 1049.02 159.35ZM1029.37 144.95C1025.92 144.95 1023.02 146 1020.67 148.1C1018.37 150.2 1017.02 152.95 1016.62 156.35H1042.12C1041.72 153 1040.34 150.275 1037.99 148.175C1035.69 146.025 1032.82 144.95 1029.37 144.95ZM1102.18 179.6C1096.93 179.6 1092.18 178.45 1087.93 176.15C1083.73 173.8 1080.43 170.6 1078.03 166.55C1075.63 162.45 1074.43 157.85 1074.43 152.75C1074.43 147.65 1075.63 143.075 1078.03 139.025C1080.43 134.925 1083.76 131.725 1088.01 129.425C1092.26 127.075 1097.01 125.9 1102.26 125.9C1106.36 125.9 1110.11 126.6 1113.51 128C1116.91 129.35 1119.81 131.375 1122.21 134.075L1117.33 138.8C1113.38 134.65 1108.46 132.575 1102.56 132.575C1098.66 132.575 1095.13 133.45 1091.98 135.2C1088.83 136.95 1086.36 139.375 1084.56 142.475C1082.81 145.525 1081.93 148.95 1081.93 152.75C1081.93 156.55 1082.81 160 1084.56 163.1C1086.36 166.15 1088.83 168.55 1091.98 170.3C1095.13 172.05 1098.66 172.925 1102.56 172.925C1108.41 172.925 1113.33 170.825 1117.33 166.625L1122.21 171.35C1119.81 174.05 1116.88 176.1 1113.43 177.5C1110.03 178.9 1106.28 179.6 1102.18 179.6ZM1152.33 138.875C1157.38 138.875 1161.38 140.35 1164.33 143.3C1167.33 146.2 1168.83 150.475 1168.83 156.125V179H1161.63V156.95C1161.63 153.1 1160.7 150.2 1158.85 148.25C1157 146.3 1154.35 145.325 1150.9 145.325C1147 145.325 1143.93 146.475 1141.68 148.775C1139.43 151.025 1138.3 154.275 1138.3 158.525V179H1131.1V123.35H1138.3V144.875C1139.8 142.975 1141.75 141.5 1144.15 140.45C1146.6 139.4 1149.33 138.875 1152.33 138.875ZM1195.88 138.875C1201.38 138.875 1205.58 140.225 1208.48 142.925C1211.43 145.625 1212.9 149.65 1212.9 155V179H1206.08V173.75C1204.88 175.6 1203.15 177.025 1200.9 178.025C1198.7 178.975 1196.08 179.45 1193.03 179.45C1188.58 179.45 1185 178.375 1182.3 176.225C1179.65 174.075 1178.33 171.25 1178.33 167.75C1178.33 164.25 1179.6 161.45 1182.15 159.35C1184.7 157.2 1188.75 156.125 1194.3 156.125H1205.7V154.7C1205.7 151.6 1204.8 149.225 1203 147.575C1201.2 145.925 1198.55 145.1 1195.05 145.1C1192.7 145.1 1190.4 145.5 1188.15 146.3C1185.9 147.05 1184 148.075 1182.45 149.375L1179.45 143.975C1181.5 142.325 1183.95 141.075 1186.8 140.225C1189.65 139.325 1192.68 138.875 1195.88 138.875ZM1194.23 173.9C1196.98 173.9 1199.35 173.3 1201.35 172.1C1203.35 170.85 1204.8 169.1 1205.7 166.85V161.3H1194.6C1188.5 161.3 1185.45 163.35 1185.45 167.45C1185.45 169.45 1186.23 171.025 1187.78 172.175C1189.33 173.325 1191.48 173.9 1194.23 173.9ZM1225.48 123.35H1232.68V179H1225.48V123.35ZM1245.68 123.35H1252.88V179H1245.68V123.35ZM1301.8 159.35C1301.8 159.9 1301.75 160.625 1301.65 161.525H1269.4C1269.85 165.025 1271.37 167.85 1273.97 170C1276.62 172.1 1279.9 173.15 1283.8 173.15C1288.55 173.15 1292.37 171.55 1295.27 168.35L1299.25 173C1297.45 175.1 1295.2 176.7 1292.5 177.8C1289.85 178.9 1286.87 179.45 1283.57 179.45C1279.37 179.45 1275.65 178.6 1272.4 176.9C1269.15 175.15 1266.62 172.725 1264.82 169.625C1263.07 166.525 1262.2 163.025 1262.2 159.125C1262.2 155.275 1263.05 151.8 1264.75 148.7C1266.5 145.6 1268.87 143.2 1271.87 141.5C1274.92 139.75 1278.35 138.875 1282.15 138.875C1285.95 138.875 1289.32 139.75 1292.27 141.5C1295.27 143.2 1297.6 145.6 1299.25 148.7C1300.95 151.8 1301.8 155.35 1301.8 159.35ZM1282.15 144.95C1278.7 144.95 1275.8 146 1273.45 148.1C1271.15 150.2 1269.8 152.95 1269.4 156.35H1294.9C1294.5 153 1293.12 150.275 1290.77 148.175C1288.47 146.025 1285.6 144.95 1282.15 144.95ZM1332.27 138.875C1337.32 138.875 1341.32 140.35 1344.27 143.3C1347.27 146.2 1348.77 150.475 1348.77 156.125V179H1341.57V156.95C1341.57 153.1 1340.65 150.2 1338.8 148.25C1336.95 146.3 1334.3 145.325 1330.85 145.325C1326.95 145.325 1323.87 146.475 1321.62 148.775C1319.37 151.025 1318.25 154.275 1318.25 158.525V179H1311.05V139.25H1317.95V145.25C1319.4 143.2 1321.35 141.625 1323.8 140.525C1326.3 139.425 1329.12 138.875 1332.27 138.875ZM1399.59 139.25V173.6C1399.59 180.55 1397.87 185.675 1394.42 188.975C1390.97 192.325 1385.82 194 1378.97 194C1375.22 194 1371.64 193.475 1368.24 192.425C1364.84 191.425 1362.09 189.975 1359.99 188.075L1363.44 182.525C1365.29 184.125 1367.57 185.375 1370.27 186.275C1373.02 187.225 1375.84 187.7 1378.74 187.7C1383.39 187.7 1386.82 186.6 1389.02 184.4C1391.27 182.2 1392.39 178.85 1392.39 174.35V171.2C1390.69 173.25 1388.59 174.8 1386.09 175.85C1383.64 176.85 1380.97 177.35 1378.07 177.35C1374.27 177.35 1370.82 176.55 1367.72 174.95C1364.67 173.3 1362.27 171.025 1360.52 168.125C1358.77 165.175 1357.89 161.825 1357.89 158.075C1357.89 154.325 1358.77 151 1360.52 148.1C1362.27 145.15 1364.67 142.875 1367.72 141.275C1370.82 139.675 1374.27 138.875 1378.07 138.875C1381.07 138.875 1383.84 139.425 1386.39 140.525C1388.99 141.625 1391.12 143.25 1392.77 145.4V139.25H1399.59ZM1378.89 171.05C1381.49 171.05 1383.82 170.5 1385.87 169.4C1387.97 168.3 1389.59 166.775 1390.74 164.825C1391.94 162.825 1392.54 160.575 1392.54 158.075C1392.54 154.225 1391.27 151.125 1388.72 148.775C1386.17 146.375 1382.89 145.175 1378.89 145.175C1374.84 145.175 1371.54 146.375 1368.99 148.775C1366.44 151.125 1365.17 154.225 1365.17 158.075C1365.17 160.575 1365.74 162.825 1366.89 164.825C1368.09 166.775 1369.72 168.3 1371.77 169.4C1373.87 170.5 1376.24 171.05 1378.89 171.05ZM1448.52 159.35C1448.52 159.9 1448.47 160.625 1448.37 161.525H1416.12C1416.57 165.025 1418.1 167.85 1420.7 170C1423.35 172.1 1426.62 173.15 1430.52 173.15C1435.27 173.15 1439.1 171.55 1442 168.35L1445.97 173C1444.17 175.1 1441.92 176.7 1439.22 177.8C1436.57 178.9 1433.6 179.45 1430.3 179.45C1426.1 179.45 1422.37 178.6 1419.12 176.9C1415.87 175.15 1413.35 172.725 1411.55 169.625C1409.8 166.525 1408.92 163.025 1408.92 159.125C1408.92 155.275 1409.77 151.8 1411.47 148.7C1413.22 145.6 1415.6 143.2 1418.6 141.5C1421.65 139.75 1425.07 138.875 1428.87 138.875C1432.67 138.875 1436.05 139.75 1439 141.5C1442 143.2 1444.32 145.6 1445.97 148.7C1447.67 151.8 1448.52 155.35 1448.52 159.35ZM1428.87 144.95C1425.42 144.95 1422.52 146 1420.17 148.1C1417.87 150.2 1416.52 152.95 1416.12 156.35H1441.62C1441.22 153 1439.85 150.275 1437.5 148.175C1435.2 146.025 1432.32 144.95 1428.87 144.95ZM1469.17 179.45C1465.92 179.45 1462.8 179.025 1459.8 178.175C1456.8 177.275 1454.45 176.15 1452.75 174.8L1455.75 169.1C1457.5 170.35 1459.62 171.35 1462.12 172.1C1464.62 172.85 1467.15 173.225 1469.7 173.225C1476 173.225 1479.15 171.425 1479.15 167.825C1479.15 166.625 1478.72 165.675 1477.87 164.975C1477.02 164.275 1475.95 163.775 1474.65 163.475C1473.4 163.125 1471.6 162.75 1469.25 162.35C1466.05 161.85 1463.42 161.275 1461.37 160.625C1459.37 159.975 1457.65 158.875 1456.2 157.325C1454.75 155.775 1454.02 153.6 1454.02 150.8C1454.02 147.2 1455.52 144.325 1458.52 142.175C1461.52 139.975 1465.55 138.875 1470.6 138.875C1473.25 138.875 1475.9 139.2 1478.55 139.85C1481.2 140.5 1483.37 141.375 1485.07 142.475L1482 148.175C1478.75 146.075 1474.92 145.025 1470.52 145.025C1467.47 145.025 1465.15 145.525 1463.55 146.525C1461.95 147.525 1461.15 148.85 1461.15 150.5C1461.15 151.8 1461.6 152.825 1462.5 153.575C1463.4 154.325 1464.5 154.875 1465.8 155.225C1467.15 155.575 1469.02 155.975 1471.42 156.425C1474.62 156.975 1477.2 157.575 1479.15 158.225C1481.15 158.825 1482.85 159.875 1484.25 161.375C1485.65 162.875 1486.35 164.975 1486.35 167.675C1486.35 171.275 1484.8 174.15 1481.7 176.3C1478.65 178.4 1474.47 179.45 1469.17 179.45Z" fill="black"/>
<line x1="631.5" y1="2.18557e-08" x2="631.5" y2="201" stroke="black"/>
</svg>
