<?xml version="1.0"?>
<svg xmlns="http://www.w3.org/2000/svg" xmlns:xlink="http://www.w3.org/1999/xlink" xmlns:svgjs="http://svgjs.com/svgjs" version="1.1" width="512" height="512" x="0" y="0" viewBox="0 0 512 512" style="enable-background:new 0 0 512 512" xml:space="preserve" class=""><g><g xmlns="http://www.w3.org/2000/svg"><path d="m400.774 226.614c3.09-3.292 4.999-7.705 4.999-12.566v-107.705c0-17.419-14.172-31.591-31.591-31.591-6.108 0-11.814 1.748-16.652 4.762v-23.821c0-17.419-14.172-31.591-31.591-31.591-6.159 0-11.908 1.778-16.772 4.839-1.353-16.183-14.946-28.941-31.473-28.941-17.419 0-31.59 14.172-31.59 31.591v15.06c-4.839-3.014-10.544-4.762-16.653-4.762-17.419 0-31.591 14.172-31.591 31.591v140.568c0 4.712 1.796 9.001 4.72 12.259-6.936 6.259-11.305 15.313-11.305 25.369v9.222l-24.127-22.334c-1.815-1.68-3.831-3.019-5.962-4.053l.155-30.528c.085-16.675-11.168-31.091-27.366-35.055-4.666-1.14-9.497-.398-13.604 2.093-4.107 2.492-6.997 6.434-8.139 11.099l-11.28 46.083c-3.112 12.713 4.423 25.58 16.881 29.185-1.112 5.223-.548 10.818 1.977 15.895l24.947 50.173c9.038 18.175 25.409 31.816 44.915 37.426l3.409.98c4.665 16.652 17.978 29.725 34.777 34.025v99.452c0 9.186 7.473 16.66 16.66 16.66h113.984c9.186 0 16.66-7.473 16.66-16.66v-28.752c0-4.125-3.344-7.469-7.469-7.469s-7.469 3.344-7.469 7.469v28.752c0 .95-.772 1.722-1.722 1.722h-113.982c-.949 0-1.722-.772-1.722-1.722v-55.539h124.897c4.125 0 7.469-3.344 7.469-7.469v-36.443c21.007-5.378 36.583-24.467 36.583-47.127v-97.085c0-9.894-4.231-18.816-10.973-25.062zm-187.976-72.517c4.458 4.284 10.397 6.699 16.653 6.699s12.196-2.416 16.652-6.699v59.935.016c0 1.905-1.55 3.454-3.454 3.454h-5.73v-24.741c0-4.125-3.344-7.469-7.469-7.469s-7.469 3.344-7.469 7.469v24.741h-5.73c-1.905 0-3.454-1.55-3.454-3.454v-59.951zm161.384 31.196c-4.125 0-7.469 3.344-7.469 7.469v24.741h-5.729c-1.905 0-3.454-1.55-3.454-3.454v-.001-45.012c4.457 4.284 10.397 6.699 16.653 6.699 6.257 0 12.196-2.416 16.652-6.7v45.014c0 1.905-1.549 3.454-3.454 3.454h-5.73v-24.741c0-4.125-3.344-7.469-7.469-7.469zm-31.591 28.754c0 1.905-1.549 3.454-3.454 3.454h-5.73v-23.605c0-4.125-3.344-7.469-7.469-7.469s-7.469 3.344-7.469 7.469v23.605h-5.729c-1.905 0-3.454-1.55-3.454-3.454v-.015-62.784c4.457 4.284 10.397 6.699 16.653 6.699 6.257 0 12.196-2.416 16.652-6.7zm-48.243-.015c0 1.905-1.549 3.454-3.454 3.454h-5.73v-23.792c0-4.125-3.344-7.469-7.469-7.469s-7.469 3.344-7.469 7.469v23.792h-5.729c-1.905 0-3.454-1.55-3.454-3.454v-79.915c4.457 4.284 10.396 6.699 16.653 6.699s12.197-2.416 16.653-6.7v79.916zm79.834-124.342c9.182 0 16.653 7.47 16.653 16.653v39.693l-9.679 11.511c-2.754 3.127-9.038 5.051-13.95 0l-9.678-11.511v-39.693c.001-9.183 7.471-16.653 16.654-16.653zm-113.14-58.099c0-9.183 7.47-16.653 16.653-16.653 9.182 0 16.653 7.47 16.653 16.653v24.102 12.864c0 4.125 3.344 7.469 7.469 7.469s7.469-3.344 7.469-7.469v-12.864c0-9.183 7.47-16.653 16.652-16.653s16.653 7.47 16.653 16.653v72.557l-9.679 11.511c-2.754 3.127-9.039 5.05-13.95 0l-9.678-11.511v-23.718c0-4.125-3.344-7.469-7.469-7.469s-7.469 3.344-7.469 7.469v6.587l-9.678 11.511c-2.755 3.126-9.039 5.051-13.951 0l-9.677-11.511v-79.528zm-48.244 41.889c0-9.183 7.47-16.653 16.653-16.653s16.653 7.47 16.653 16.653v57.619l-9.678 11.511c-2.755 3.126-9.039 5.051-13.951 0l-9.677-11.511zm-96.238 165.404c-1.306-2.152-1.695-4.683-1.097-7.128l11.28-46.084c.261-1.066.975-1.635 1.378-1.879s1.239-.616 2.303-.354c9.458 2.315 16.029 10.732 15.979 20.47l-.145 28.556c-3.205.585-6.335 1.813-9.191 3.721l-8.976 5.998c-2.953 2.266-8.499 1.418-11.531-3.3zm41.575 77.922-24.947-50.173c-2.105-4.231-.727-9.403 3.202-12.029l8.976-5.998c3.638-2.431 8.423-2.053 11.635.92l34.274 31.727v64.473c-14.371-4.863-26.358-15.28-33.14-28.92zm238.674 31.955c0 18.584-15.12 33.704-33.704 33.704h-66.929c-4.125 0-7.469 3.344-7.469 7.469s3.344 7.469 7.469 7.469h64.049v27.46h-117.427v-27.46h17.902c4.125 0 7.469-3.344 7.469-7.469s-3.344-7.469-7.469-7.469h-20.782c-18.584 0-33.704-15.119-33.704-33.704v-97.085c0-9.421 6.813-17.267 15.768-18.906v10.158c0 4.125 3.344 7.469 7.469 7.469s7.469-3.344 7.469-7.469v-10.488h33.305v11.421c0 4.125 3.344 7.469 7.469 7.469s7.469-3.344 7.469-7.469v-11.421h33.306v11.622c0 4.125 3.344 7.469 7.469 7.469s7.469-3.344 7.469-7.469v-11.622h33.306v10.488c0 4.125 3.344 7.469 7.469 7.469s7.469-3.344 7.469-7.469v-10.043c8.653 1.876 15.159 9.584 15.159 18.792v97.084z" fill="#ffcc00" data-original="#000000" style=""/></g></g></svg>
