<svg width="231" height="266" viewBox="0 0 231 266" fill="none" xmlns="http://www.w3.org/2000/svg">
<g id="U4UCIconLarge" clip-path="url(#clip0)">
<path id="Vector" d="M160.5 50.3C160.5 60 160.5 69.8 160.5 79.5C160.5 85.5 160.5 91.6 160.5 97.6C160.5 106 160.5 114.3 160.5 122.7C160.5 127.1 160.5 131.5 160.5 136C160.5 138.4 160.5 140.9 160.5 143.3C160.5 145 160.5 146.7 160.5 148.5C160.7 163.9 154.9 175.2 147.1 181.9C131.3 196.3 101.4 196.3 85.6 181.9C77.2 174.7 71.6 162.4 72.2 146.6C72.2 145.3 72.2 143.9 72.2 142.6C72.2 122.8 72.2 103.1 72.2 83.3C72.2 73.3 72.2 63.3 72.2 53.3C72.2 37.5 72.2 20.8 72.2 5H41.2C41.2 20.6 41.2 37.2 41.2 52.7C41.2 61.7 41.2 70.8 41.2 79.8C41.2 89.9 41.2 100 41.2 110.1C41.2 116.3 41.2 122.5 41.2 128.7C41.2 132.3 41.2 135.9 41.2 139.5C41.2 141.8 41.2 144.2 41.2 146.5C39.2 249 193 249.3 191.4 146.9C191.4 143.5 191.4 140.1 191.4 136.7C191.4 131.3 191.4 126 191.4 120.6C191.4 115.6 191.4 110.7 191.4 105.7C191.4 96.6 191.4 87.4 191.4 78.3L160.4 47.4L160.5 50.3Z" fill="#221F20"/>
<path id="Vector_2" d="M200 78.3C200 88.1 200 97.8 200 107.6C200 112.9 200 118.3 200 123.6C200 129.4 200 135.3 200 141.1C200 144.9 200 148.7 200 152.4C203.3 263.3 28.4 261.7 31.1 152.4C31.1 149.9 31.1 147.3 31.1 144.8C31.1 141 31.1 137.2 31.1 133.4C31.1 126.7 31.1 120.1 31.1 113.4C31.1 102.9 31.1 92.4 31.1 81.9C31.1 72.7 31.1 63.4 31.1 54.2C31.1 38.1 31.1 21 31.1 5H0.0999874C0.0999874 22.8 0.0999874 41.6 0.0999874 59.4C0.0999874 70.3 0.0999874 81.2 0.0999874 92C0.0999874 107.1 0.0999874 122.3 0.0999874 137.4C0.0999874 141.3 0.0999874 145.1 0.0999874 149C-4.40001 303.4 234.5 306 231 150.4C231 147.5 231 144.5 231 141.6C231 136.4 231 131.2 231 126C231 119.1 231 112.1 231 105.2C231 98.4 231 91.7 231 84.9C231 72.4 231 59.9 231 47.4C219.9 58.4 207.1 71.2 200 78.3Z" fill="#221F20"/>
<path id="Vector_3" d="M214.3 24.1C216.9 23.8 220.5 24.9 223.1 27.5L230.9 35.3L226 40.2L218.2 32.4C217.1 31.3 215.9 31 214.8 31.1C213.6 31.2 212.3 31.9 211.2 33C210.1 34.1 209.5 35.4 209.3 36.6C209.2 37.7 209.5 38.8 210.6 39.9L218.5 47.8L213.6 52.7L205.7 44.8C203.1 42.2 202.2 38.9 202.5 35.9C202.7 33.8 203.5 31.8 204.7 30.1C205.5 29.1 209.3 24.6 214.3 24.1Z" fill="#0897FF"/>
<path id="Vector_4" d="M184.5 16.7C184.2 14.1 185.3 10.5 187.9 7.90001L195.7 0.100006L200.6 5.00001L192.8 12.8C191.7 13.9 191.4 15.1 191.5 16.2C191.6 17.4 192.3 18.7 193.4 19.8C194.5 20.9 195.8 21.5 197 21.7C198.1 21.8 199.2 21.5 200.3 20.4L208.2 12.5L213.1 17.4L205.2 25.3C202.6 27.9 199.3 28.8 196.3 28.5C194.2 28.3 192.2 27.5 190.5 26.3C189.5 25.5 185 21.7 184.5 16.7Z" fill="#FF0808"/>
<path id="Vector_5" d="M177.1 46.5C174.5 46.8 170.9 45.7 168.3 43.1L160.5 35.3L165.4 30.4L173.2 38.2C174.3 39.3 175.5 39.6 176.6 39.5C177.8 39.4 179.1 38.7 180.2 37.6C181.3 36.5 181.9 35.2 182.1 34C182.2 32.9 181.9 31.8 180.8 30.7L172.9 22.8L177.8 17.9L185.7 25.8C188.3 28.4 189.2 31.7 188.9 34.7C188.7 36.8 187.9 38.8 186.7 40.5C185.9 41.5 182.2 46 177.1 46.5Z" fill="#FFC908"/>
<path id="Vector_6" d="M207 53.9C207.3 56.5 206.2 60.1 203.6 62.7L195.8 70.5L190.9 65.6L198.7 57.8C199.8 56.7 200.1 55.5 200 54.4C199.9 53.2 199.2 51.9 198.1 50.8C197 49.7 195.7 49.1 194.5 48.9C193.4 48.8 192.3 49.1 191.2 50.2L183.3 58.1L178.4 53.2L186.3 45.3C188.9 42.7 192.2 41.8 195.2 42.1C197.3 42.3 199.3 43.1 201 44.3C202 45.1 206.4 48.8 207 53.9Z" fill="#B008FF"/>
</g>
<defs>
<clipPath id="clip0">
<rect width="231" height="266" fill="white"/>
</clipPath>
</defs>
</svg>
