<svg width="122" height="143" viewBox="0 0 122 143" fill="none" xmlns="http://www.w3.org/2000/svg">
<g id="U4UCIconLarge" clip-path="url(#clip0)">
<rect id="BG" width="33.0421" height="33.0421" rx="6.03741" transform="matrix(0.693828 0.720141 -0.693828 0.720141 98.4865 0)" fill="white"/>
<g id="U">
<path id="Vector" d="M80.8482 30.8C80.8482 35.8456 80.8482 40.9433 80.8482 45.9889C80.8482 49.1099 80.8482 52.2829 80.8482 55.4039C80.8482 59.7733 80.8482 64.0907 80.8482 68.4601C80.8482 70.7488 80.8482 73.0376 80.8482 75.3783C80.8482 76.6267 80.8482 77.9271 80.8482 79.1755C80.8482 80.0598 80.8482 80.9441 80.8482 81.8804C80.9484 89.891 78.0417 95.7689 74.1326 99.254C66.2143 106.744 51.2296 106.744 43.3113 99.254C39.1015 95.5088 36.295 89.1107 36.5957 80.8921C36.5957 80.2159 36.5957 79.4876 36.5957 78.8114C36.5957 68.5121 36.5957 58.2648 36.5957 47.9655C36.5957 42.7639 36.5957 37.5622 36.5957 32.3605C36.5957 24.1419 36.5957 15.4551 36.5957 7.23648H21.0597C21.0597 15.3511 21.0597 23.9858 21.0597 32.0484C21.0597 36.7299 21.0597 41.4635 21.0597 46.145C21.0597 51.3986 21.0597 56.6523 21.0597 61.906C21.0597 65.131 21.0597 68.3561 21.0597 71.5811C21.0597 73.4537 21.0597 75.3263 21.0597 77.1989C21.0597 78.3953 21.0597 79.6437 21.0597 80.8401C20.0574 134.157 97.1359 134.313 96.334 81.0481C96.334 79.2796 96.334 77.511 96.334 75.7424C96.334 72.9335 96.334 70.1767 96.334 67.3677C96.334 64.7669 96.334 62.2181 96.334 59.6173C96.334 54.8837 96.334 50.0982 96.334 45.3647L80.7981 29.2915L80.8482 30.8Z" fill="black"/>
<path id="Vector_2" d="M100.644 45.3647C100.644 50.4623 100.644 55.5079 100.644 60.6056C100.644 63.3625 100.644 66.1714 100.644 68.9282C100.644 71.9452 100.644 75.0142 100.644 78.0312C100.644 80.0078 100.644 81.9844 100.644 83.909C102.298 141.596 14.6449 140.763 15.998 83.909C15.998 82.6086 15.998 81.2562 15.998 79.9558C15.998 77.9792 15.998 76.0025 15.998 74.0259C15.998 70.5408 15.998 67.1077 15.998 63.6226C15.998 58.1608 15.998 52.6991 15.998 47.2373C15.998 42.4518 15.998 37.6142 15.998 32.8287C15.998 24.454 15.998 15.5591 15.998 7.23648H0.462069C0.462069 16.4954 0.462069 26.2746 0.462069 35.5336C0.462069 41.2034 0.462069 46.8732 0.462069 52.491C0.462069 60.3455 0.462069 68.252 0.462069 76.1065C0.462069 78.1352 0.462069 80.1118 0.462069 82.1405C-1.79315 162.454 117.934 163.807 116.18 82.8687C116.18 81.3602 116.18 79.7997 116.18 78.2913C116.18 75.5864 116.18 72.8815 116.18 70.1767C116.18 66.5875 116.18 62.9463 116.18 59.3572C116.18 55.82 116.18 52.3349 116.18 48.7978C116.18 42.2957 116.18 35.7936 116.18 29.2915C110.617 35.0134 104.202 41.6715 100.644 45.3647Z" fill="black"/>
</g>
<g id="Colors">
<path id="Vector_3" d="M107.866 17.9327C109.177 17.7757 110.993 18.3515 112.304 19.7123L116.237 23.7949L113.766 26.3596L109.833 22.277C109.278 21.7013 108.673 21.5443 108.118 21.5966C107.513 21.6489 106.858 22.0153 106.303 22.5911C105.748 23.1668 105.446 23.8473 105.345 24.4754C105.294 25.0511 105.446 25.6269 106 26.2026L109.984 30.3376L107.513 32.9023L103.529 28.7673C102.218 27.4065 101.764 25.6792 101.916 24.109C102.016 23.0098 102.42 21.963 103.025 21.0732C103.428 20.5498 105.345 18.1944 107.866 17.9327Z" fill="#0897FF"/>
<path id="Vector_4" d="M92.8385 14.0595C92.6872 12.6987 93.2419 10.8144 94.553 9.45351L98.4865 5.37091L100.957 7.93562L97.024 12.0182C96.4693 12.594 96.318 13.2221 96.3685 13.7978C96.4189 14.4259 96.7719 15.1063 97.3266 15.6821C97.8813 16.2578 98.5369 16.5719 99.142 16.6766C99.6967 16.7289 100.251 16.5719 100.806 15.9961L104.79 11.8612L107.261 14.4259L103.277 18.5608C101.966 19.9217 100.302 20.3928 98.789 20.2358C97.73 20.1311 96.7215 19.7123 95.8642 19.0843C95.3599 18.6655 93.0906 16.6766 92.8385 14.0595Z" fill="#FF0808"/>
<path id="Vector_5" d="M89.1067 29.6572C87.7956 29.8142 85.9802 29.2384 84.669 27.8776L80.7356 23.795L83.2066 21.2302L87.14 25.3128C87.6947 25.8886 88.2999 26.0456 88.8546 25.9933C89.4597 25.9409 90.1153 25.5746 90.67 24.9988C91.2247 24.423 91.5273 23.7426 91.6282 23.1145C91.6786 22.5388 91.5273 21.963 90.9726 21.3873L86.9887 17.2523L89.4597 14.6876L93.4436 18.8226C94.7547 20.1834 95.2086 21.9107 95.0573 23.4809C94.9564 24.5801 94.553 25.6269 93.9479 26.5167C93.5444 27.0401 91.6786 29.3954 89.1067 29.6572Z" fill="#FFCC00"/>
<path id="Vector_6" d="M104.185 33.5304C104.336 34.8912 103.781 36.7755 102.47 38.1364L98.5369 42.219L96.0659 39.6543L99.9993 35.5717C100.554 34.9959 100.705 34.3678 100.655 33.7921C100.604 33.164 100.251 32.4836 99.6968 31.9078C99.142 31.3321 98.4865 31.018 97.8813 30.9133C97.3266 30.861 96.7719 31.018 96.2172 31.5938L92.2333 35.7287L89.7623 33.164L93.7462 29.0291C95.0573 27.6682 96.7215 27.1971 98.2343 27.3541C99.2933 27.4588 100.302 27.8776 101.159 28.5056C101.663 28.9244 103.882 30.861 104.185 33.5304Z" fill="#B008FF"/>
</g>
</g>
<defs>
<clipPath id="clip0">
<rect width="121" height="143" fill="white" transform="translate(0.411926)"/>
</clipPath>
</defs>
</svg>
