<svg width="81" height="131" viewBox="0 0 81 131" fill="none" xmlns="http://www.w3.org/2000/svg">
<path d="M78.0499 57.6007C78.8513 56.764 79.3465 55.6423 79.3465 54.4067V27.0303C79.3465 22.6027 75.6707 19.0005 71.1528 19.0005C69.5686 19.0005 68.0886 19.4448 66.8338 20.2109V14.156C66.8338 9.72848 63.1581 6.12624 58.6401 6.12624C57.0427 6.12624 55.5516 6.57818 54.29 7.35622C53.9391 3.24283 50.4135 0 46.127 0C41.609 0 37.9336 3.60224 37.9336 8.0298V11.8577C36.6785 11.0916 35.1988 10.6473 33.6143 10.6473C29.0964 10.6473 25.4206 14.2496 25.4206 18.6771V54.4067C25.4206 55.6044 25.8865 56.6946 26.6449 57.5227C24.8459 59.1136 23.7127 61.4149 23.7127 63.971V66.315L17.4549 60.6382C16.9842 60.2111 16.4613 59.8708 15.9086 59.608L15.9488 51.8484C15.9709 47.6099 13.0522 43.9457 8.85096 42.9381C7.64075 42.6483 6.38775 42.8369 5.32253 43.4701C4.25731 44.1035 3.50774 45.1055 3.21154 46.2912L0.285876 58.0046C-0.521275 61.236 1.43306 64.5065 4.66425 65.4229C4.37584 66.7504 4.52212 68.1726 5.17702 69.463L11.6475 82.216C13.9916 86.8357 18.2377 90.303 23.2969 91.7289L24.1811 91.978C25.3911 96.2106 28.844 99.5335 33.2011 100.627V125.905C33.2011 128.24 35.1394 130.14 37.5222 130.14H67.0859C69.4685 130.14 71.407 128.24 71.407 125.905V118.597C71.407 117.549 70.5396 116.699 69.4698 116.699C68.3999 116.699 67.5325 117.549 67.5325 118.597V125.905C67.5325 126.147 67.3323 126.343 67.0859 126.343H37.5227C37.2766 126.343 37.0761 126.147 37.0761 125.905V111.788H69.4703C70.5402 111.788 71.4075 110.938 71.4075 109.89V100.627C76.856 99.2598 80.8959 94.4077 80.8959 88.648V63.971C80.8959 61.4561 79.7985 59.1883 78.0499 57.6007V57.6007ZM29.2951 39.1684C30.4513 40.2573 31.9917 40.8711 33.6143 40.8711C35.2369 40.8711 36.7775 40.257 37.9333 39.1684V54.4026V54.4067C37.9333 54.8909 37.5313 55.2846 37.0374 55.2846H35.5513V48.996C35.5513 47.9475 34.6839 47.0975 33.614 47.0975C32.5442 47.0975 31.6768 47.9475 31.6768 48.996V55.2846H30.1907C29.6966 55.2846 29.2948 54.8907 29.2948 54.4067V39.1684H29.2951ZM71.1528 47.0978C70.0829 47.0978 69.2156 47.9477 69.2156 48.9962V55.2849H67.7297C67.2356 55.2849 66.8338 54.8909 66.8338 54.407V54.4067V42.9656C67.9898 44.0545 69.5305 44.6683 71.1531 44.6683C72.7759 44.6683 74.3163 44.0542 75.472 42.9653V54.407C75.472 54.8912 75.0703 55.2849 74.5762 55.2849H73.09V48.9962C73.09 47.9477 72.2227 47.0978 71.1528 47.0978ZM62.9591 54.4064C62.9591 54.8907 62.5574 55.2844 62.0633 55.2844H60.5771V49.2845C60.5771 48.236 59.7098 47.386 58.6399 47.386C57.57 47.386 56.7027 48.236 56.7027 49.2845V55.2844H55.2167C54.7226 55.2844 54.3209 54.8904 54.3209 54.4064V54.4026V38.4442C55.4769 39.5331 57.0175 40.147 58.6401 40.147C60.263 40.147 61.8034 39.5329 62.9591 38.4439V54.4064ZM50.4465 54.4026C50.4465 54.8868 50.0447 55.2806 49.5506 55.2806H48.0644V49.2331C48.0644 48.1846 47.1971 47.3347 46.1272 47.3347C45.0573 47.3347 44.19 48.1846 44.19 49.2331V55.2806H42.7041C42.21 55.2806 41.8082 54.8866 41.8082 54.4026V34.0898C42.9642 35.1788 44.5046 35.7926 46.1275 35.7926C47.7503 35.7926 49.291 35.1785 50.4467 34.0896V54.4026H50.4465ZM71.1528 22.7974C73.5343 22.7974 75.472 24.6961 75.472 27.0303V37.1194L72.9616 40.0453C72.2473 40.8401 70.6175 41.3291 69.3434 40.0453L66.8333 37.1194V27.0303C66.8336 24.6961 68.771 22.7974 71.1528 22.7974V22.7974ZM41.808 8.0298C41.808 5.69566 43.7455 3.79694 46.1272 3.79694C48.5087 3.79694 50.4465 5.69566 50.4465 8.0298V14.156V17.4258C50.4465 18.4743 51.3138 19.3243 52.3837 19.3243C53.4536 19.3243 54.3209 18.4743 54.3209 17.4258V14.156C54.3209 11.8219 56.2584 9.92318 58.6399 9.92318C61.0214 9.92318 62.9591 11.8219 62.9591 14.156V32.5986L60.4487 35.5244C59.7344 36.3193 58.1043 36.808 56.8305 35.5244L54.3204 32.5986V26.5699C54.3204 25.5214 53.453 24.6715 52.3832 24.6715C51.3133 24.6715 50.4459 25.5214 50.4459 26.5699V28.2442L47.9358 31.1701C47.2212 31.9646 45.5914 32.4539 44.3174 31.1701L41.8075 28.2442V8.0298H41.808ZM29.2951 18.6771C29.2951 16.343 31.2325 14.4443 33.6143 14.4443C35.9961 14.4443 37.9336 16.343 37.9336 18.6771V33.3227L35.4234 36.2486C34.7088 37.0432 33.079 37.5325 31.805 36.2486L29.2951 33.3227V18.6771ZM4.33408 60.7195C3.99534 60.1725 3.89445 59.5292 4.04955 58.9077L6.97521 47.1941C7.04291 46.9231 7.2281 46.7785 7.33262 46.7165C7.43715 46.6545 7.65398 46.5599 7.92995 46.6265C10.383 47.2149 12.0873 49.3544 12.0744 51.8296L12.0368 59.0879C11.2055 59.2366 10.3937 59.5488 9.65292 60.0337L7.32484 61.5583C6.55893 62.1343 5.12048 61.9187 4.33408 60.7195V60.7195ZM15.1173 80.5257L8.64684 67.7727C8.10087 66.6973 8.45828 65.3827 9.47733 64.7152L11.8054 63.1906C12.749 62.5727 13.9901 62.6688 14.8232 63.4245L23.7127 71.4889V87.8766C19.9853 86.6405 16.8763 83.9927 15.1173 80.5257ZM77.0215 88.648C77.0215 93.3717 73.0999 97.2149 68.2798 97.2149H50.9206C49.8507 97.2149 48.9834 98.0649 48.9834 99.1134C48.9834 100.162 49.8507 101.012 50.9206 101.012H67.5328V107.992H37.0761V101.012H41.7193C42.7892 101.012 43.6565 100.162 43.6565 99.1134C43.6565 98.0649 42.7892 97.2149 41.7193 97.2149H36.3291C31.509 97.2149 27.5874 93.372 27.5874 88.648V63.971C27.5874 61.5763 29.3545 59.5821 31.6771 59.1655V61.7474C31.6771 62.7959 32.5444 63.6459 33.6143 63.6459C34.6842 63.6459 35.5515 62.7959 35.5515 61.7474V59.0816H44.1897V61.9846C44.1897 63.0331 45.0571 63.883 46.127 63.883C47.1969 63.883 48.0642 63.0331 48.0642 61.9846V59.0816H56.7027V62.0357C56.7027 63.0841 57.57 63.9341 58.6399 63.9341C59.7098 63.9341 60.5771 63.0841 60.5771 62.0357V59.0816H69.2156V61.7474C69.2156 62.7959 70.0829 63.6459 71.1528 63.6459C72.2227 63.6459 73.09 62.7959 73.09 61.7474V59.1947C75.3343 59.6715 77.0218 61.6307 77.0218 63.9712V88.648H77.0215Z" fill="#FFCC00"/>
</svg>
